<?xml version="1.0" encoding="utf-8"?>
<!-- Generator: Adobe Illustrator 16.0.3, SVG Export Plug-In . SVG Version: 6.00 Build 0)  -->
<!DOCTYPE svg PUBLIC "-//W3C//DTD SVG 1.1//EN" "http://www.w3.org/Graphics/SVG/1.1/DTD/svg11.dtd">
<svg version="1.1" xmlns="http://www.w3.org/2000/svg" xmlns:xlink="http://www.w3.org/1999/xlink" x="0px" y="0px" width="796.5px"
	 height="405.37px" viewBox="-4.5 -4.5 796.5 405.37" enable-background="new -4.5 -4.5 796.5 405.37" xml:space="preserve">
	 <defs>
	 	<style>
	 		#ajara, 
	 		#apkhazia, 
	 		#guria, 
	 		#kvemoKartli, 
	 		#imereti, 
	 		#mckhetaMtianeti, 
	 		#kakheti, 
	 		#rachaLechkhumi, 
	 		#samkhretOseti, 
	 		#shidaKartli, 
	 		#samegreloZemosvaneti, 
	 		#tbilisi, 
	 		#samckheJavakheti{ 
	 			cursor:pointer; transition: all 0.3s ease-in-out; 
	 		}
	 		
	 		#ajara:hover, 
	 		#apkhazia:hover, 
	 		#guria:hover, 
	 		#kvemoKartli:hover, 
	 		#imereti:hover, 
	 		#mckhetaMtianeti:hover, 
	 		#kakheti:hover, 
	 		#rachaLechkhumi:hover, 
	 		#samkhretOseti:hover, 
	 		#shidaKartli:hover, 
	 		#samegreloZemosvaneti:hover, 
	 		#tbilisi:hover, 
	 		#samckheJavakheti:hover{ 
	 			fill:#fee133; transition: all 0.3s ease-in-out; 
	 		}
	 	</style>
	 </defs>

<g id="Layer_13">
	<path id="ajara" fill="#000000" stroke="#FFFFFF" stroke-width="0.5" d="M207.65,269.33l0.31-0.21l0.88,0.069l0.631,0.09
		l0.909,0.381l0.49,0.1l6.159,0.051l0.66,0.129l0.92,0.391l0.5,0.09l5.141,0.03l1.04,0.149l2.601,1.24l0.569,0.82l0.069,0.73
		l-0.069,3.029l0.09,0.439l0.28,0.351l0.449,0.12l0.801,0.029l3.21-0.06l0.92,0.2l0.5,0.34l0.351,0.381l0.719,1.189l0.441,0.54
		l0.5,0.319l1.199,0.351l0.59,0.28l1.961,0.32l0.819,0.439l0.29,0.25l0.17,0.54l0.09,1.229l0.35,0.471l0.41,0.07l0.521-0.16
		l3.159-1.58l0.99-0.221l1.201-0.449l0.5-0.061l4.1,0.029l0.83,0.031l0.479,0.14l2.521,1.19l0.59,0.6l0.64,1.199l0.54,1.521
		l1.391-0.41l0.899-0.39l2.261-0.24l0.76-0.32l0.85-0.199l6.04,0.1l2.84-2.721l2.3-1.17l1.74-1.459l0.439-0.15l0.471-0.05
		l2.609,0.01l0.791,0.09l0.42,0.2l1.729,1.65l0.47,0.619l1.461,3.01l0.479,0.49l0.42,0.16l0.47,0.051l4.09,0.029l0,0l0.28,1.16
		l1.63,3.21l0.12,0.45l0.03,0.65l0.02,3.42l-0.109,0.81l-0.391,0.64l-1.699,1.68l-0.33,0.681l-0.051,1.5l0.141,0.58l0.41,0.851
		l0.18,0.83l1.38,2.77l1.511,1.73l0.469,0.85l0.42,0.35l1.92,0.91l0.851,0.75l1.24,2.391l2.22,2.209l0.381,0.471l0.239,0.56
		l0.19,1.45l0.35,0.72l0.48,1.31l0.819,2.69l0,0l-0.61,0.351l-0.5,0.649l-0.219,0.69l0.079,1.789l-0.14,0.94l-1.46,2.99l0.36,0.5
		l0.149,1.76l-0.79,0.33l-0.75,0.681l-0.891,1.729l-1.539-0.13l-0.5,0.43l-0.141,0.83l-0.47,0.46l-0.86,0.3l-0.359,0.36l-0.71,1.649
		l1.271,2.15l0.289,1.25l-0.029,0.58l-0.32,0.5l-0.79,0.04l-1.08-0.89l-0.931,0.039l-2.979,0.91l-2.87-0.16l-0.9-0.389l-1.149-1.141
		l-1.771-1.1l-0.83-1.471l-2.619,0.051l-1.68,0.27l-1.051-0.609l-1.189-0.711l-1.36,0.12l-0.79,0.181l-1.04-0.42l-0.87-1.07
		l-0.869-0.53l-0.861-0.28l-1.699-1.32l-0.83-0.17l-2.08,0.34l-1.689-0.639l-4.771,0.219l-0.649,0.33l-0.66-1.93l-0.36-0.359
		l-0.61-0.211l-0.729-0.779l-1.47-0.061l-2.291,0.881l-0.76,0.01l-1,0.15l-0.9,0.299l-1.069,0.08l-0.229-1.109l-0.791-0.141
		l-1.14,0.7l-1.771-0.38l-0.959,0.37l-3,2.181l-0.641,0.149l-0.8-0.24l-2.71-1.479l-0.97-0.131l-1.58,0.021l-0.5-0.069l-0.37-0.641
		l-0.04-0.859l-1.42-1.431l-2.58,0.11l-0.92,1.26l-2.89,2.01l-0.57,0.23l-1.25,0.3l-0.49,1.37l-0.82,0.729l-0.06,1.22l-1.229,1.44
		l-0.811,1.42l-3.15,1.011l-0.24,0.83l-1.01,1.439l-1.609,0.89l-0.54-0.021l-0.95-1.25l-0.48-0.959l-1.299-0.59l-1.15-0.311
		l-0.301-1.109l-0.76-0.42l-1.59-0.701l-1.63-0.799L202.7,337l-1.521-0.33l-0.25-0.5l0.271-0.76l0.569-0.439l0.101-0.611
		l-0.33-0.709l-1.16-0.53l-3.89,1.71l-1.43,0.35l-1.041,0.16l-1.049-0.449L190,332.92l-1.529-1.41l-2.971-1.1l-0.48-0.79
		l-0.899-0.341l-1.58-0.119l-1.12-0.52l0.1-1.17l0.131-0.221l0.229-0.26l0.06-0.57l0.201-0.18l0.26-0.04l0.229-0.171l0.399-0.35
		l0.23-1.01l0.16-1.35l0.1-1.83l-0.029-1.53l0.32-1.84l0.59-1.74l0.629-0.88l0.421-0.391l0.2-0.35l0.289-0.609l0.561-0.74l0.49-0.4
		l0.66-0.869l0.229-0.44l1.021-1.271l0.189-0.209l0.95-0.881l0.33-0.3l0.56-0.44l0.36-0.31l0.33-0.22l0.19-0.08h0.43l0.39,0.17
		v0.439l0.13,0.391l0.27,0.66l0.681-0.131l0.431,0.131l-0.061-0.311l0.061-0.3l0.299-0.271l0.19,0.351l0.53,0.05l0.52-0.35
		l0.17-0.131l0.16-0.27l0.2-0.21l0.29-0.31l0.529-0.881l0.65-0.689l0.721-1.051l0.399-0.659l0.29-0.57l0.36-0.61l0.13-0.26
		l0.27-0.479l0.16-0.57l0.23-0.18l0.39-0.04l0.101-0.221l0.16-0.35l0.459-0.66l0.43-1.18l0.431-1l0.09-0.221l1.12-3.149l0.82-2.979
		l0.46-0.26l0.229-0.271l0.32-0.79l0.2-0.26l0.329-0.48l0.75-2.01l0.141-0.66l0.811-2.24l0.229-0.959l0.56-3.861l0.131-2.149
		l0.17-2.45l-0.1-0.92l-0.631-2.72l-0.029-0.841l-0.131-0.649L207.65,269.33z"/>
</g>
<g id="Layer_14">
	<path id="apkhazia" fill="#000000" stroke="#FFFFFF" stroke-width="0.5" d="M31.99,1.6l1.25,1.14l1.6-0.26l0.82,0.35l2.6,2.34
		l2.4-0.45l0.98,0.31l1.28,0.75l0.82,0.16l1.23-0.01l0.74,0.09l1.91,0.32l1.11-0.04l0.84-0.54l0.85-0.7l0.57-0.33l2.28,1.46
		l2.38,0.31l1.14,0.71l1,1.42L59,9.15l1.27,0.45l2.09,0.38l2.89,1.04l0.94,0.08l1.8-0.99l2.93-3.53l0.95-0.63l1.05-0.21l0.77-0.28
		l0.81-0.48l1.18-0.91l1.25,0.02l0.711,0.17l1.01,0.91l0.64,1.03l0.61,1.25l0.67,0.57l1.07,0.43l0.979,0.23l2.03,0.09l1.39,0.65
		l1.771,0.97l1.18,0.84l1.07,1.07l1.43,0.78l2.41,1.07l1.42,0.78l1.55,1.14l4.159-0.07l1.421,0.13l1.53,0.94l0.609,0.61l0.15,0.82
		l-0.42,1.52l0.07,0.48l0.51,0.63l1.06,0.38l1.08,0.68l0.88,0.84l1.21,2.75l1.57,0.55l1.85-0.15l1.06-0.36l0.67-0.88l0.49-0.38
		l0.73-0.12l0.87,0.34l1.271,1.05l1.33,0.86l1.35,0.65l0.76,1.02l0.62,1.08l0.12,1.98l0.27,0.25l1.87,1.11l3.39,0.81l1.33-0.06
		l0.59-0.52l0.371-0.91l0.539-0.75l0.67-0.62l0.74-0.06l1.561,0.12l1.49,0.49l1.459,0.75l1.75,0.52l2.631,1.01l2.119,0.68l1.94,1
		l2.03,1.49l3.68,0.71l0.93,0.42l1.1,1l1.25,1.74l1.451-0.08l0.89,0.06l-0.03,0.22l0.26-0.51l1.041-0.61l0.949-0.91l1.301-2.1
		l0.83-0.54l0.52,0.14l0.68,0.36h0.439l1.23-0.55l1.02-0.13l0.74,0.21l1.471,1.35l0.31,7.04l0.31,0.61l0.59,0.32l0.851,0.19
		l2.79,0.45l0.79-0.05l1.261,0.53l0.6,0.66l0.41,0.66l0.83,0.87l1.119,0.84l2.58,1.28l2.32,1.51l0.641,0.79l0.42,1.15l2.239,0.85
		l1.091,1.32l1.959,0.34l2.811,1.42l0.91,0.25l1.189-0.16l1.09-0.91l0.891-0.09l0.51,0.19l3.09,1.65l0.46,0.33l0.92,0.22l0.9,0.04
		l0.979-0.52l0.801-0.91l0.6-1.21l0.43-0.25l0.57,0.03l1.42,0.93l1.76,1.83l2.221,0.64l1.42,0.13l2.479,1.15l0.63-0.01l1.25-0.28
		l2.551-0.85l1.299-0.79l0.551-1.15l-0.689-1.52l-0.141-0.78l0.24-0.8l0.39-0.59l0.67-0.2l0.74,0.14l1.46,1.5l3.12,1.37l2.37,0.22
		l0.66,0.27l0.459,0.53l0.91,1.53l0.59,0.45l0.92-0.08l1.521-0.76l2.46-0.14l1.99,0.21l1.47,1.32l1.011,1.52l1.129,0.35l1.11,0.1
		l2.761-1.67l2.699-0.15l1.061-0.35l2.82-2.13l1.02-0.07l1.14,0.37l0,0l-0.34,0.77l-0.29,1.16l-0.98,2l-0.26,1.01l-1.01,2.15
		l-0.13,0.62l-0.011,4.03l1.111,2.26l0.1,0.96l-0.471,1.16l-0.279,1.68l-1,2.07l-0.2,0.89l-1.91,3.93l-0.25,0.39l-1.659,1.711
		l-0.941,0.789l-1.129,0.65l-0.521,0.48l-0.33,0.479l-0.54,1.13l-0.17,0.61l-0.14,1.2l-0.46,0.949L241,92.55l-0.41,0.181
		l-1.199,0.17l-0.951,0.34l-0.85,0.1l-2.22,0.051l-1.53,0.5l-1.96,0.17l-3.29,1.58l-1.76,0.31l-1.051,0.39l-1.799,0.141l-0.561,0.14
		l-2.449,1.14l-0.351,0.32l-0.21,0.43l0.05,0.551l0.399,1.06l0.17,1.31l0.601,1.03l0.22,0.17l0.42,0.101l1.86,0.039l0.46,0.271
		l0.16,0.75l-0.1,0.63l-0.4,0.91l-0.141,0.65v3.779l0.281,0.68l0.409,0.41l0.591,0.291l0.399,0.479l0.149,0.46l0.08,1.8l0.17,0.57
		l0.871,0.899l0.16,0.51l-0.07,0.681l-0.68,1.47l-0.66,0.9l-1.031,0.39l-1.639,0.81l-0.701,0.74l-0.41,0.75l-0.659,0.84l-0.16,0.451
		l0.17,0.479l1.44,1.44v0.649l0.56,1.601l0.12,2.879l0.09,0.48l0.36,0.74l0.079,0.48l0.041,6.92l0.1,1.16l0.391,0.889l0.26,1.021
		l0.4,0.681l2.359,2.42l0.52,0.939l0.66,0.859l0.301,0.621l0.1,0.729l-0.02,2.54l-0.08,0.561l-0.391,0.959l-0.26,1.621l-0.37,0.91
		l-0.261,1.01l-0.6,0.67l-1.119,0.58l-2,0.68l-1.11,1.359l-0.89,1.83l-1.561,1.811l-0.57,1.02l-2.43,2.5l-0.85,1.37l-1.74,1.72
		l-0.9,0.48l-1.02,0.77l-0.99,0.541l-1.75,1.469l-1.01,0.541l-1.04,0.8l-7.511,3.659l-1.859,0.291l-0.87,0.35l-0.899,0.2l-1.42,0.63
		l-0.44,0.32l-0.5,0.55l-0.8,1.3l-2.25,2.301l-0.33,0.439l-0.33,0.67l-0.75,0.859l-2.9,1.471l-3.07,1.43l-2.459,1.33l0,0l-0.291-1.1
		l-0.129-1.33l-0.301-1.461l-0.26-1.68l-0.301-2.08l-0.449-4.029l-0.07-1.29l-0.23-1.46l-0.159-2.131l-0.13-1.06l-0.99-6.29
		l-0.189-0.98l-0.301-1.149l-0.199-0.489l-0.261-1.461l-0.159-0.76l-0.131-0.85l-0.43-0.971l-0.301-1.02l-0.68-2.439l-0.27-2
		l-2.88-8.621l-0.79-2.31l-0.92-1.86l-0.26-0.58l-0.201-0.619l-0.389-0.76l-0.92-1.561l-0.951-1.061l-0.459-0.049l-1.311,0.309
		l-0.29-0.709l-0.399-0.311l-0.391-0.67l-0.75-0.93l-1.41-0.85l-1.81-0.58l-0.88,0.049h-0.53l-0.72-0.219l-0.521-0.141l-0.59-0.13
		l-0.399-0.271l-0.951-0.399l-0.489-0.13l-0.521-0.141l-0.529-0.039l-0.33,0.129h-0.32l-0.79-0.129l-0.521-0.221l-0.729-0.54
		l-0.59-0.53l-1.05-0.799l-0.91-0.221l-0.66-0.27l-0.82-0.271l-0.59-0.13l-1.699-0.45l-0.69-0.22l-0.69-0.18l-0.619-0.4l-1.25-0.35
		l-1.74-0.09l-1.141,0.35l-0.3,0.14l-0.56,0.44l-0.62,0.539l-0.591,0.311h-0.56l-0.46-0.12l-0.52-0.11l-0.791-0.26l-0.949-0.14
		l-0.359-0.08l-0.521-0.54l-0.101-0.22l-0.359-0.94l-0.07-0.71l-0.189-0.271l-0.301-0.17l-0.43-0.58l-0.359-0.449l-0.75-0.53
		l-0.16-0.271L131.16,122l-0.79-0.98l-0.69-0.5l-0.289-0.529l-0.431-1.34l-0.06-1.07l-0.2-1.24l-0.29-1.07l-0.23-1.56l-0.229-1.92
		l-0.72-4.06l-0.371-1.83l-0.42-2.01l-0.26-0.75l-0.17-0.361l-0.52-1.159l-0.23-0.89l-0.23-0.5l-0.43-0.891l-0.229-0.4l-0.36-0.539
		l-0.359-0.58l-0.23-0.801l-0.359-0.58l-0.851-0.81l-0.26-0.22l-0.3-0.311l-1.15-0.449l-0.91,0.05l-0.199,0.35l-0.75,0.271
		l-1.48-0.221l-0.95,0.041l-0.89,0.939l-0.461,0.49l-0.289,0.32l-0.26,0.26l-0.23,0.229l-0.66,0.181l-0.561-0.23l-0.219-0.18
		l-0.201-0.221l-0.359-1.16l-0.59-0.629l-0.891-0.98l-0.289-0.36l-0.92-0.44l-0.131-0.18l-0.33-0.9l-0.289-0.76l-0.17-0.35
		l-1.08-1.391l-0.49-0.449l-1.121-0.66l-0.389-0.76l-0.521-0.23l-0.271-0.709l-0.26-0.451l-0.39-0.629l-0.63-1.07L102.6,83.93
		l-0.359-0.41l-1.41-1.199l-0.689-0.23L98.471,82l-1.15-0.58l-1.57-0.359l-1.439-0.041l-0.33-0.18H93.55l-0.45,0.131l-0.56,0.319
		h-0.33l-0.39-0.14l-0.23-0.221l-0.89-0.22l-2.95-0.41l-2.23,0.05L84.87,80.57l-0.89,0.09H83.59l-1.38-0.18l-0.56-0.131h-0.461
		l-0.359,0.18l-0.721-0.049L79.33,80.35l-1.74-0.76l-1.22-0.99l-1.14-0.26l-0.43-0.18h-0.36l-1.25,0.619L70.8,79.45l-1.44,0.319
		l-1.31,0.09l-0.76-0.049l-0.36-0.131l-0.49-0.32l-1.38-1.649l-0.59-1.16l-0.49-0.63l-0.88-1.16l-0.23-0.54l-0.43-0.67l-0.33-0.27
		l-0.75-0.49l-0.39-0.41l-0.37-0.4l-0.52-0.36l-0.75-0.31l-0.3-0.05H58.8h-0.59l-0.46,0.05l-0.26,0.22h-0.52l-0.89-0.04l-0.39-0.18
		h-0.33l-0.33,0.09l-0.33,0.27l-0.26,0.18l-0.26,0.13l-0.49-0.54l-0.2-0.49l-0.43-0.36l-0.26-0.18l-0.53-0.27l-0.32-0.18l-0.3-0.13
		H51.2l-0.27,0.13l-0.85-0.35l-0.36-0.27l-0.52-0.58l-0.43-0.23l-0.26-0.04l-0.46-0.18l-0.63-0.54l-0.22-0.36l-0.4-0.27l-0.52-0.31
		l-0.76-0.36l-0.16-0.04l-0.89-0.05l-1.44,0.36l-1.08,0.63l-0.43,0.36l-0.29,0.26l-0.13,0.14l-0.59,0.81l-0.33,0.4l-0.59,0.54v0.08
		l0.06,0.32l0.04,0.27l-0.17,0.31L39.39,71L39,70.91l-0.66-0.54l-0.46-0.72l-0.55-0.36l-0.63-0.58l-0.45-0.4l-0.89-1.3l-0.39-0.31
		h-0.79l-0.36-0.18l-0.3-0.36l-0.46-0.45l-0.39-0.45l-0.26-0.22l-0.76-0.72l-0.16-0.36l-0.43-2.24l-0.39-5.94l-0.46-3.97l-0.66-3.14
		l-0.52-1.97l-0.49-1.48l-0.49-1.04l-0.46-0.67l-0.33-0.31l-0.33-0.18l-0.42-0.27l-1.02-0.41L25,42.25l-0.26-0.04l-0.3-0.23
		l-0.29-0.36l-0.63-0.31L23,41.04l-1.94-0.31l-0.65-0.27L18.9,40.1l-1.15-0.54l-1.08-0.72l-2.36-1.93l-0.72-0.36l-1.18,0.04
		l-0.13-0.13l-0.03-0.18l-1.54-1.04l-0.79-0.49l-0.17-0.09l-1.57-1.03L7.36,33.4H5.89l-1.48-0.09l-1.93-0.45l-1.09-0.31l-0.65-0.23
		L0.1,32.37L0,30.13l0.57-2.59l-0.15-1.26l0.26-0.88l0.57-0.77l2.03-3.86l0.33-1.17l0.52-2.91l0.71-0.82l1.34-1.78l0.12-0.94
		l0.38-0.85l0.78-0.67l2.5-2.6l0.4-0.95l-0.04-0.71L9.7,5.69l0.03-1.2l0.4-1.04l0.58-0.71l0.57-0.13l2.12,0.48l1.18-0.19l1.47-0.57
		l1.72-0.8l1.7-0.39l0.78,0.01l1.16,0.44l2.31-0.04l0.86-0.33l0.86-0.69l1.13-0.41L28.02,0l1.72,0.27L31.99,1.6z"/>
</g>
<g id="Layer_12">
	<path id="guria" fill="#000000" stroke="#FFFFFF" stroke-width="0.5" d="M205.84,232.96l0.59-0.37l0.42-0.119l1.351-0.201
		l0.899-0.35l0.631-0.09l8.01,0.07l0.609-0.07l1.41-0.42l2.211-0.25l0.909-0.35l1.771-0.311l1.85-0.85l0.66-0.2l5.67,0.01l0.67-0.12
		l0.76-0.33l2.42-0.41l1.45,0.791l1.681,0.25l0.92,0.379l1.629,0.26l0.891,0.381l1.07,0.279l0.82,0.65l2.879,2.9l0.92,0.6
		l1.631,0.23l0.76,0.35l0.47,0.09l5.261,0.061l1.109,0.13l0.9,0.42l0.97,0.22l1.09,0.6l0.3,0.42l0.35,0.951l0,0l-0.979,0.529
		l-0.739,0.54l-0.91,0.97l-0.17,0.28l-0.11,0.44l-0.06,1.479l0.16,0.47l1.26,2.5l0.58,0.58l1.119,0.561l0.45,0.13l3.21,0.06
		l0.811,0.131l1.39,0.709l1.11,0.84l0.609,0.201l0.49,0.049h0.641l0.699-0.219l0.58-0.86l0.38-0.89l0.47-0.781l0.17-0.189l0.42-0.17
		l0.98-0.05l2.95,0.08l0.489,0.11l0.891,0.379l1.04,0.19l0.67,0.229l1.74,3.5l0.239,1.591l0.391,0.89l0.279,1.141l0.66,1.39
		l0.631,0.97l0.689,0.2h1.961l0.779,0.09l2.811,1.341l1.529,0.84l2.59,2.449l0.43,0.211l0.871,0.189l0.91,0.38l1.26,0.36
		l0.619,0.479l1.371,1.341l0.67,0.399l0.939,0.11l5.69-0.041l0.84,0.061l0.62,0.21l0.479,0.47l1.13,1.7l0.2,0.649l0.04,8.48
		l0.18,0.98l0.36,0.91l0.14,2.119l0,0l-3.189-0.029l-0.61,0.13l-0.57,0.351l-0.81,0.77l-0.49,0.64l-0.59,1.261l-0.18,1.439
		l-0.131,0.439l-0.539,0.871l-0.35,0.219l-1.23,0.19l-1.061,0.41h-0.729l-0.71-0.31l-1.45-1.28l-0.46-0.181l-0.5-0.06h-2.221
		l-0.649,0.14l-0.739,0.34l-0.311,0.051l-2.311,0.1l0,0l-4.09-0.029l-0.47-0.051l-0.42-0.16l-0.479-0.49l-1.461-3.01l-0.47-0.619
		l-1.729-1.65l-0.42-0.2l-0.791-0.09l-2.609-0.01l-0.471,0.05l-0.439,0.15l-1.74,1.459l-2.3,1.17L270.87,285l-6.04-0.1l-0.85,0.199
		l-0.76,0.32l-2.261,0.24l-0.899,0.39l-1.391,0.41l-0.54-1.521l-0.64-1.199l-0.59-0.6l-2.521-1.19l-0.479-0.14l-0.83-0.031
		l-4.1-0.029l-0.5,0.061l-1.201,0.449l-0.99,0.221l-3.159,1.58l-0.521,0.16l-0.41-0.07l-0.35-0.471l-0.09-1.229l-0.17-0.54
		l-0.29-0.25l-0.819-0.439l-1.961-0.32l-0.59-0.28l-1.199-0.351l-0.5-0.319l-0.441-0.54l-0.719-1.189l-0.351-0.381l-0.5-0.34
		l-0.92-0.2l-3.21,0.06l-0.801-0.029l-0.449-0.12l-0.28-0.351l-0.09-0.439l0.069-3.029l-0.069-0.73l-0.569-0.82l-2.601-1.24
		l-1.04-0.149l-5.141-0.03l-0.5-0.09l-0.92-0.391l-0.66-0.129l-6.159-0.051l-0.49-0.1l-0.909-0.381l-0.631-0.09l-0.88-0.069
		l-0.31,0.21l0,0l-0.07-0.85l-0.189-0.971l-0.17-0.39l-0.23-3.431l-0.19-3.119l-0.46-3.82l-0.04-2.29l0.07-0.83l-0.3-0.659
		l-0.36-1.58l0.04-0.57l0.189-0.221l0.201-1.229l-0.131-0.05l-0.07,0.09l-0.1,0.439l-0.09,0.09l-0.1,0.701l-0.23,0.09l-0.62-0.971
		l-0.2-0.699l-0.56-0.181l-0.229-0.569l-0.42-0.621l-0.201-0.439l-0.819-1.891l-0.261-1.1l-1.08-1.89l-0.27-0.479l-0.06-0.44
		l-0.36-0.57l-0.17-0.45l-0.391-0.479v-0.261l0.16-0.31h0.271l0.229,0.04l-0.069-0.439l0.03-0.131l0.17-0.129h0.16v0.439l0.33,0.83
		l0.1,0.31v0.53l0.23,0.311l0.159,0.439v0.22l-0.1,0.091l-0.06,0.219l-0.07,0.351l0.3,0.17l0.13,0.091l0.23,0.049l0.09-0.22
		l0.369,0.08l0.09,0.271l0.101,0.26l0.101,0.22h0.129l0.23-0.39l0.131-0.141v-0.3l-0.191-0.36l-0.069-0.17v-0.22l0.13-0.271
		l0.23,0.051l0.13-0.13l-0.101-0.22l-0.26-0.051l-0.029-0.13l0.129-0.17l0.391-0.229l0.13-0.131v-0.129l-0.13-0.221l-0.46,0.04
		l-0.19-0.08l-0.13-0.44l-0.13-0.439l-0.66-0.141l-0.13-0.299l-0.399-0.09l-0.09-0.351l-0.271,0.08l-0.13-0.3l0.199-0.36h0.201
		h0.159l0.431,0.181l0.319,0.129l0.07-0.039l0.3-0.131l0.42-0.18l0.891-0.311l0.649-0.31h0.56l0.33-0.04l0.23-0.13l0.23-0.31
		l0.09-0.271l0.07-0.17l-0.131-0.62v-0.75l0.131-0.26l0.299-0.09l0.23-0.09l0.391-0.131l0.289-0.129v-0.181l-0.32-0.26l-0.27-0.091
		l-0.39-0.09l-0.16-0.039l-0.229-0.181L205.84,232.96z"/>
</g>
<g id="Layer_11">
	<path id="imereti" fill="#000000" stroke="#FFFFFF" stroke-width="0.5" d="M307.27,170.67l1.28,1.52l0.28,0.75l-0.01,1.471
		l-0.12,0.46l-0.44,1.04l-0.08,1.779l0.17,0.94l0.9,1.229l0.19,0.601l0.029,2.931l-0.12,1.42l1.271,0.16l1.189-0.091l0.891-0.38
		l1.14-0.29l0.75-0.33l1.15-0.271l1.14-0.529l0.63-0.53l1.07-2.1l0.31-0.28l0.42-0.17l1.21,0.029l1.171,0.49l1.5,0.211l0.52,0.299
		l1.271,1.16l0.229,0.16l0.62,0.17h0.99l1.229-0.449l1.07-0.16l0.26-0.11l0.22-0.25l0.311-1.59l0.42-1.229l0.2-0.36l0.489-0.16
		l0.421,0.03l2.229,0.9l0.19,0.18l0.55,0.979l0.66,0.681l0.27,0.17l1.51,0.279l0.17,0.1l0.061,0.16l1.42,0.44l1.27,0.91l1.03,0.59
		l5.311,5.22l0.55,0.75l0.29,1.131l0.38,0.89l0.17,2.75l0.38,0.88l0.21,0.77l0.15,0.221l0.359,0.18l0.42,0.051l2.82-0.011l0.72,0.17
		l2.53,1.28l1.5,1.32l1.15,0.67l1.1,1.029l0.46,0.28h0.28l0.24-0.11l1.189-1.09l0.53-0.289l1.979-0.15l1.03-0.42l0.59-0.11
		l1.091,0.021l0.909,0.25l1.21-0.75l1.79-0.261l1.391-0.67l1.13-0.86l0.899-0.47l1.57-1.45l0.64-0.81l0.86-1.771l0.351-0.41
		l4.229-2.129l1.021-0.961l0.09-0.439l0.13-0.21l0.569-0.25l1.82-0.011l1.95,0.131l1.4-0.16l1.04-0.41l0.64-0.109l6.03,0.01
		l0.81,0.14l0.75,0.351l1,0.25l1.04,0.43l1.95,0.189l1.22,0.471l1.3,0.109l0.811-0.09l0.899-0.391l1.141-0.289l0.76-0.33l1.62-0.25
		l1.06-0.43l1.15-0.061l0.62,0.16l5.67,2.85l0.819,0.15l0,0l-0.17,0.99v1.67l0.37,1.31l1.49,0.56l1.31,1.681l-0.189,2.05l-2.05,0.74
		l0.189,1.859l0.74,1.871l2.24,1.299l1.68,0.381l2.42,0.93l2.05,0.37l1.301,1.12v1.83l-0.37,0.72l-0.58,0.761l-0.59,0.569
		l-0.65,0.47l-0.54,0.221l0,0l-1.25,0.609l0,0l-0.51,0.46l0,0l-0.15,0.24l0,0l-0.54,1.11l0,0l-0.239,1l0,0l-0.44,1.01l-0.021,0.73
		l0.421,1.02l0.3,1.119l0.399,0.891l0.091,0.77l-0.021,3.36l-0.13,0.601l-0.29,0.609l0,0l-0.19,0.86l-0.069,1.239l0,0l-2.41,1.17
		l-0.59,0.57l-0.61,1.24l-0.27,1.141l-0.351,0.729l-0.229,1.62l-0.391,0.88l-0.33,1.25l-0.64,1.25l-1.42,1.59l-0.73,1.22L415.69,241
		l-4.33,2.061l-0.69,0.5l-0.11,1.039l-0.38,0.881l-0.13,0.789l0.021,8.551l-0.101,0.959l-0.399,0.57l-1.13,0.66l-1.98,1.77
		l-0.93,0.5l-0.521,0.391l-1.21,1.16l-0.609,0.76l-0.631,1.24l-0.13,0.949l0.07,1.131l0.47,1.18l0.11,1.051l0,0l-1.07,0.09
		l-1.029,0.41l-1.351,0.149l-0.42,0.12l-1.4,0.71l-1.739,1.63l-0.641,0.43l-1.64,0.24l-1.03,0.4l-1.35,0.15l-0.42,0.119l-1.4,0.7
		l-1.609,1.399l-2.54,1.23l-0.421,0.12l-1.489,0.19l-0.75,0.34l-1.15,0.27l-0.75,0.34l-1.149,0.271l-0.75,0.34l-1.011,0.22
		l-0.89,0.391l-1.14,0.26l-7.061,3.43l-1.58,0.68l-1.49-0.689l-1.29-0.73l-0.689,0.15l-1.49,0.13l-1.55,0.5l-3.98,0.05l-1.699,0.53
		l-3.21,0.05l-0.631,0.11l-1.069,0.39l-1.78,0.131l-0.46,0.149l-0.4,0.271l-1.319,1.31l-1.42,0.06l-1.011-0.1l-0.27-0.09l-3.01-1.52
		l-0.44-0.131l-0.83-0.08l-3.12,0.03l-0.84-0.06l-0.62-0.16l-2.02-0.98l-0.67-0.1h-2.221l-0.699,0.15l-3.75,1.789l-0.65,0.49
		l-1.56,1.49l-0.42,0.25l-1.32,0.16l-1.21-0.021l-1.01-0.14l-2.301-1.061l-0.75-0.09l-1.29,0.02l-0.64-0.469l-0.71-1.211l-2.03-2.08
		l0,0l-0.14-2.119l-0.36-0.91l-0.18-0.98l-0.04-8.48l-0.2-0.649l-1.13-1.7l-0.479-0.47l-0.62-0.21l-0.84-0.061l-5.69,0.041
		l-0.939-0.11l-0.67-0.399l-1.371-1.341l-0.619-0.479l-1.26-0.36l-0.91-0.38l-0.871-0.189l-0.43-0.211l-2.59-2.449l-1.529-0.84
		l-2.811-1.341l-0.779-0.09h-1.961l-0.689-0.2l-0.631-0.97l-0.66-1.39l-0.279-1.141l-0.391-0.89l-0.239-1.591l-1.74-3.5l-0.67-0.229
		l-1.04-0.19l-0.891-0.379l-0.489-0.11l-2.95-0.08l-0.98,0.05l-0.42,0.17l-0.17,0.189l-0.47,0.781l-0.38,0.89l-0.58,0.86
		l-0.699,0.219H270l-0.49-0.049l-0.609-0.201l-1.11-0.84l-1.39-0.709l-0.811-0.131l-3.21-0.06l-0.45-0.13l-1.119-0.561l-0.58-0.58
		l-1.26-2.5l-0.16-0.47l0.06-1.479l0.11-0.44l0.17-0.28l0.91-0.97l0.739-0.54l0.979-0.529l0,0l0.9-0.15l0.69,0.02l0.489,0.1
		l0.9,0.381l0.84,0.01l0.471-0.199l0.949-0.691l0.641-0.35l0.359-0.32l0.181-0.279l0.13-0.49l0.1-1.529l0.45-1.23l0.11-1.21
		l-0.01-11.22l-0.121-0.851l-0.469-1.18l0.09-0.601l0.33-0.289l1.5-0.48l1.369-0.2l0.34-0.271l0.16-0.569l0.01-0.989l-0.09-1.021
		l-0.209-0.761l1.08-2.02L274,210.6l1.109-1.379l1.031-2.031l0.939-1.209l2.93-5.771l1.301-1.29l1.039-0.561l0.49-0.379l2.2-2.131
		l0.739-0.82l0.671-1.149l1.569-1.59l0.381-0.49l0.149-0.43l0.06-0.61l-0.039-6.689l0.05-0.771l0.159-0.409l0.391-0.391l1.891-0.88
		l0.33-0.25l0.239-0.341l0.149-0.789l-0.01-3.01l0.181-0.61l0.739-0.79l1.17-0.641l0.58-0.52l0.371-0.5l0.84-1.76l0.26-0.32
		l0.34-0.24l0.971-0.149l4.6,0.05l0.77-0.21l0.98-0.729l0.55-0.24l1.43-0.07L307.27,170.67z"/>
</g>
<g id="Layer_10">
	<path id="kakheti" fill="#000000" stroke="#FFFFFF" stroke-width="0.5" d="M782.19,394.2l-2.41-0.06l-0.95,0.81l-1.34-0.14
		l-1.88-2.15l-2.7-1.08l-2.82-0.67l-2.29,1.619l-3.359,4.841l-1.62,3.1l-1.61,0.4l-2.69-3.57l-0.539-3.36l-2.69-1.08l-2.56,1.351
		h-2.15l-3.22-3.989l-2.17-3.141l-3.761-4.58l-3.5-3.23l-6.87-0.27l-4.71,0.54l-2.689-1.34h-1.88l-0.61,0.72l-2.21,0.59l-0.83,3.051
		l-1.61,0.899l-1.899-0.71l-1.46-0.27l-3.04,0.17l-2.64-0.28l-1.091,0.319l-2.33,0.381l-3.819-0.25l-3.05-1.721l-2.49-2.24
		l-2.74-1.459l-2-0.93l-1.42-0.371l-2.83,0.11l-1.74-0.34l-2.189-0.83l-2.41-1.87l-2.561-1.279l-3.319-2.261l-3.11-4.38l-1.24-1.83
		l-0.47-0.85l0.03-0.53l0.35-0.681l0.641-0.139l0.609-0.891l0.57-1.29l0.74-0.569l0.489-0.671l0.521-0.239l0.61-0.131l1.819-0.06
		l0.62-0.2l0.271-0.42l-0.16-0.48l-1.811-1.779l-0.72-0.84l-0.68-0.051l-2.48,1.541l-0.87-0.091l-1.17-0.399l-3.16-1.91l-1.319-0.32
		l-2.09,0.18l-2.141,0.621l-1.97-0.771l-0.66-0.5l-0.63-0.75l-0.4-2.341l-0.56-1.299l-1.58-0.73l-3.93-0.96l-2.271-0.79l-1.06-0.641
		l-0.66-0.629l-1.97-2.36l-0.851-0.46l-0.93-0.131h-0.93l-0.54-0.119l-1.86,2.279l-0.96,0.9l-0.7,0.45l-0.899,0.12l-0.9-0.07
		l-2.96-1.85l-2.561-1.87l-1.779-1.88l0,0l-0.33-1.221l-2.21-4.279l0.01-0.561l0.85-1.74l-0.05-0.369l-0.42-0.541l-1.87-1.789
		l-0.75-0.461L622,327.63l-1.04-0.42l-2.93-0.11l-1.5-0.51L615,326.5l-0.58-0.12l-0.35-0.239l-0.261-0.311l-1.239-2.471l-0.11-0.58
		l0.021-0.75l0.109-0.43l0.41-0.85l0.03-0.721l-0.11-0.409l-1.62-3.05l-0.09-0.43l0.05-0.591l0.29-0.53l1.681-1.67l0.779-1.25
		l1.431-1.57l0.63-1.219l0.069-0.4l-0.08-0.41l-0.319-0.721l-0.221-1.459l-0.39-0.881l-0.29-1.119l-0.34-0.73l-0.25-1.6l-0.47-1.17
		l-0.05-3.021l-0.091-0.771l-1.68-3.359l-0.27-1.13l-0.33-0.74l-0.21-0.76l-0.15-0.22l-0.24-0.141l-0.88-0.1l-2.61,0.07
		l-0.449,0.109l-0.73,0.35l-0.439,0.091l-0.591-0.05l-0.38-0.2l-0.359-0.41l-0.92-1.89l-1.4-1.58l-0.51-0.91l-0.851-1.09l-1.739-3.4
		l-1.341-1.38l-0.909-0.66l0,0v-1.79l-0.08-0.74l-0.82-1.649l-0.79-0.761l-0.92-0.489l-1.11-0.841l-1.58-0.609l5.7-5.51l0.26-0.12
		l0.44-0.04l1.38,0.63l0.82,0.66l1.729,1.729l0.7,0.541l1.28,0.6l1.64,0.25l1.01,0.4l0.551-0.07l2-0.961l1.989-0.139l1.17-0.451
		l1.94-0.24l-0.35-1.039l-0.801-1.51l-1.93-1.99l-1.01-0.78l-1.14-0.3l-1.04-0.41l-2.32-0.12l-1.48-0.51l-1.979-0.181l-1.04-0.42
		l-1.65-0.25l-0.739-0.33l-0.78-0.219l-0.3-0.25l-0.25-1.351l-0.381-0.88l-0.1-0.44l-0.05-0.909l0.07-0.761l0.239-0.55l0.761-0.95
		l0.51-0.88l1.33-1.439l0.13-0.261l0.04-0.43l-1.01-2.08l-0.28-1.14l-0.61-1.25l-0.479-0.631l-1.38-1.34l-0.271-0.47l0.061-0.47
		l1.199-2.391l0.08-0.47l-0.45-1.09l-1.579-2.931l-0.131-0.539l0.051-0.28l0.22-0.39l1.689-1.66l0.391-0.66l0.149-2.58l0.42-1.01
		l0.131-0.6l0.08-3.361l0.46-1.17l0.21-1.469l0.369-0.881l0.301-1.119l0.56-0.761l1.99-1.93l0.399-0.671l0.101-0.93l-0.04-3.68
		l0.05-0.46l0.16-0.44l0.49-0.609l3.359-3.311l0.591-1.029l0.84-1.1l0.58-0.951l0.479-0.289l0.99-0.23l0.75-0.32l1.649-0.22
		l0.9-0.37l1.13-0.279l0.521-0.431l1.27-2.47l0.17-0.721v-0.609l-0.08-0.439l-0.39-0.891l-0.24-1.391l-0.45-0.909l-0.229-0.7
		l-0.95-1.859l-0.13-0.42l-0.08-3.531L613.8,190l0.3-0.54l0.32-0.34l0.49-0.37l1.05-0.561l1.89-1.719l1.11-0.641l0.39-0.57l0.11-0.9
		l-0.05-5.109l-0.12-0.63l-0.35-0.74l-0.261-0.989l-0.43-1.011l-0.01-0.89l1.95-3.881l0.93-1.219l1.02-2.031l1.45-1.609l0.45-0.88
		l0.57-0.67l0,0l1.02,2.21l1.271,1.5l1.069,0.91l1.011,0.43l1.159,0.15l1.29-0.301l1.33-0.539l2.431-0.701l0.819-0.409l0.771-0.16
		l2.97-0.2l2.95,0.34l3.689,0.12l3-0.159l3.15-1.33l2.01-0.051l1.53,0.27l0.9,0.431l1.659,1.771l1.24,1.1l3.3,1.9l3.57,1.47
		l5.72,3.45l0.44,0.119l3.399-0.289l1.21,0.049l1.101,0.761l0.84,1.09l0.5,1.33l0.35,1.55l-0.06,1.68l-0.2,1.49l-0.78,1.541
		l-4.13,6.5l-0.399,1.149l-0.19,1.021l0.561,3.039l-0.051,1.42l-0.729,2.09l0.35,0.48l1.45,1.26l0.45,0.59l0.189,1.76l-0.42,0.641
		l-0.79,0.63l-2.51,1.08l-1.319,0.25l-0.771,0.3l-1.46-0.01l-1.26,0.609l-0.8-0.029l-0.671-0.68l-0.71-0.381l-0.909-0.109l-0.7,0.23
		l-0.391,0.76l-1.619,5.22l-1.2,3.239l-0.87,1.971l0.27,0.7l0.49,0.489l0.87,0.211l0.61,0.27l2.029,2.18l2.7,0.851l3.05,2.03
		l1.011,0.43l0.77,0.68l2.561,1.65l1.479,1.289l0.53,1.611l0.68,0.17l0.78,0.539l0.88,0.9l0.479,0.779l1.78,0.971l1.3,0.221
		l0.95,0.799l0.72,0.32l1.12,0.141l2.23-0.53l1.52,0.09l2.62,0.92l1.38,0.78l2.641,2.27l0.149,1.02l-0.029,1.82l0.17,1.271
		l0.47,1.11l1.35,1.609l0.301,1.75l0.489,0.49l1.061,0.689l0.79,0.17l0.85-0.539l2.14-1.851l0.771-0.11l1,0.391l1.22,0.3l0.891-0.54
		l1.17-0.29l0.5,0.2l0.34,0.67l0.229,1.46l0.2,0.511l0.57,0.239l0.729-0.11l0.67-0.34l0.71-0.66l1.37-1.77l0.9,0.33l0.63,0.6
		l0.26,2.551l0.28,1.1l0.57,1.18l1.18,1.32l1.32,0.74l0.66-0.2l0.27-0.53l0.28-2.561l0.54-0.85l0.479-0.199l0.61,0.199l0.67,0.43
		l3.79,4.101l1.33,0.229l1.78-0.069l1.35-0.38l2.72-1.82l1.141-0.24l0.64,0.17l0.52,0.57l0.431,1.17l1.16,1.57l3.6,3.34l0.7,1.33
		l1.04,0.3l0.45,0.45l0.199,0.48l-0.14,0.75l0.06,0.289l1.881,0.15l0.479-0.41l0.25-0.71l0.13-1.38l0.43-0.63l0.65-0.05l0.57,0.279
		l0.779,1.16l0.671,0.391l0.56-0.381l1.16-1.649l0.52-0.341l0.54,0.021l0.24,0.37l0.23,1.5l-0.141,1.51l0.41,2.16l0.33,0.811
		l3.18,1.939l-0.41,4.4l-0.59,1.93l-1.27,2.58l-0.69,0.95l-1.93,1.979l-1.84,0.94l-2.57,1.729l-5.14,4.631l-5.92,1.229l-5.261,1.92
		l-3.109,4.06l1.68,8.621l1.67,5.02l0.24,7.42l2.15,2.63l3.35-3.351l2.05,0.301l-0.07,0.23l3.48,1.51l0.92,1.83l-0.51,1.34
		l0.28,1.699l0.819,1.771l1.37,1.72l0.311,0.541l1.56,2.17l0.26,1.379l-0.31,2.25l0.51,0.91l1.14,0.99l3.99,1.471l3.04,1.34
		l0.19,0.66l0.05,1.439l0.31,0.23l2.65,0.14l0.74,0.39l1.069,1.09l0.96,1.801l0.9,0.729l2.27,1.569l1.73,0.57l6.81,2.67l0.12,0.09
		l0.17,0.641l0.88,0.35l2.66,0.791l0.15,0.409l0.479,0.341l0.091-0.4l0.34-0.65l0.399,0.02l0.4,0.49l-0.1,0.57l-0.261,0.641
		l0.07,0.649l0.65,0.011l0.489-0.391l0.32,0.41l0.22,0.58l0.57,0.17l0.43-1.12l0.641,0.34l0.39,0.74l-0.6,1.28l-0.58,0.229
		l-0.561,0.069l-0.34,0.471l-0.09,0.41l0.88,0.18l0.57,0.02l0.63,0.66l0.34-0.319l0.25-0.56l-0.06-0.65l0.1-0.801l0.17-0.319
		l0.561,0.17l0.3,0.899l-0.03,1.461l-0.42,0.64l0.32,0.17l0.649-0.149l0.32,0.25l0.06,0.649l-0.18,0.729l0.07,0.4l0.81,0.18
		l1.22-0.369l0.561,0.18l0.149,0.41l-0.409,0.39l0.14,0.649l0.31,0.58l-0.27,0.961l0.47,0.82l0.79,0.75l0.15,0.489l-0.26,0.64
		l0.319,0.131l2.771,0.229l0.64,0.851l0.04,0.689l-0.57,0.609l-1.13,0.601l-1.2,1.729l-0.67,0.65l-0.109,3.19l-2.07,2.09l-0.44,1.16
		l-0.829,0.93l-1.24,1.88l0.26,1.551l0.66,1.06l0.35,0.88l-0.43,0.4v1.83l-0.771,0.41l-0.39,1.219l0.23,4.681l-0.841,1.319
		l-0.079,1.121L782.19,394.2z"/>
</g>
<g id="Layer_9">
	<path id="kvemoKartli" fill="#000000" stroke="#FFFFFF" stroke-width="0.5" d="M576.11,290.32l0.38-0.12l0.59-0.431l1.71-1.629
		l0.58-0.701l0.189-0.719l0.011-2.301l0.17-0.87l0.649-1.239l0.87-1.07l0.41-0.77l0.83-1.101l0.38-0.74l0.4-0.36l0.41-0.1
		l0.409,0.08l0.73,0.33l1,0.26l2.16,1.04l0.79,0.091l3.09,0.069l2.11,0.92l0.39-0.06l1.07-0.76l1.21-0.511l0,0l0.909,0.66
		l1.341,1.38l1.739,3.4l0.851,1.09l0.51,0.91l1.4,1.58l0.92,1.89l0.359,0.41l0.38,0.2l0.591,0.05l0.439-0.091l0.73-0.35l0.449-0.109
		l2.61-0.07l0.88,0.1l0.24,0.141l0.15,0.22l0.21,0.76l0.33,0.74l0.27,1.13l1.68,3.359l0.091,0.771l0.05,3.021l0.47,1.17l0.25,1.6
		l0.34,0.73l0.29,1.119l0.39,0.881l0.221,1.459l0.319,0.721l0.08,0.41l-0.069,0.4l-0.63,1.219l-1.431,1.57l-0.779,1.25l-1.681,1.67
		l-0.29,0.53l-0.05,0.591l0.09,0.43l1.62,3.05l0.11,0.409L613,320.75l-0.41,0.85l-0.109,0.43l-0.021,0.75l0.11,0.58l1.239,2.471
		l0.261,0.311l0.35,0.239l0.58,0.12l1.53,0.09l1.5,0.51l2.93,0.11l1.04,0.42l1.01,0.229l0.75,0.461l1.87,1.789l0.42,0.541
		l0.05,0.369l-0.85,1.74l-0.01,0.561l2.21,4.279l0.33,1.221l0,0l-1.511-0.83l-1.22-0.221l-0.87,0.26l-1.25,0.941l-0.89-0.061
		l-0.91,0.26l-1.54,0.02l-0.78,0.881l-0.979,2.85l-0.98,0.439l-1.649,1.17l-0.86,1.021l-1.14,1.011l-3.28,0.66l-0.77,0.449
		l-1.71,2.1l-1.54,1.32l-1.57,2.54l-2.21,3.24l-1.11,1.26l-1.42,0.86l-1.62,0.46l-0.979,0.37l-2.67,1.979l-2.57,1.08l-1.7,0.56
		l-0.74,0.451l-0.979-0.061l-0.91,0.439l-3.66,3.24l-0.41,0.6l-0.22,1.32l-0.67,1.16l-1.11,0.12l-1.25-0.06l-2.67-0.711l-0.54-0.02
		l-0.93,0.301l-0.54,0.029l-0.81-0.561l-1.54-1.359l-0.5-0.12l-0.61,0.021l-0.86-0.131l-2.09-0.939l-1.5-2.83l-0.39-0.4l-0.47,0.061
		l-0.36,0.21l-0.68,1.771l-0.17,0.75l0.489,0.619l0.13,0.54l-0.909,0.8l-0.23,2.07l2.07,3.52l0.84,0.42l2.24,0.58l1.729,0.98
		l0.74,0.48l0.49,0.58l-0.16,0.68l-2.29,0.189l-1.18-0.13l-2.86-1.39l-1.11-0.28l-0.859,0.091l-0.9,0.479l-0.96-0.38l-2.31,0.77
		h-1.641l-0.93,0.16l-1.1,0.939l-1.29,0.371l-0.641-0.34l-0.109-1.32l-0.351-0.371l-0.53-0.219L552.7,376.6l-1.19,0.41l-0.68-0.05
		l-0.68-0.2l-0.66-0.83l-0.34-0.9l-0.601-0.299l-3.58,0.069l-1.279-0.39l-0.78-0.12l-0.36,0.239l-0.899,2.021l-0.36,1.75l-0.26,2.03
		l-0.15,0.57l-0.439,0.56l-0.4,0.25l-0.83,0.3l0.01-2.18l-0.38-0.65l-0.57,0.061l-1.84,0.57l-2.64,1.379l-0.43,0.061l-0.74-0.26
		l-2.67-0.561l-0.79,0.061l-1.55,0.439l-2.341,1.17l-0.859,0.131l-0.79-0.021l-1.42-0.53l-3.53-2.38l-2.21-2.079l-4.07-2.511
		l-0.68-0.22l-0.57,0.06l-0.689,0.38l-0.37,0.68l-0.16,1.461l0.021,0.539l-0.301,0.711l-0.47,0.27l-0.78-0.189l-2.31-1l-2.28-0.221
		l-2.399,0.32l-1.32-0.311l-0.39-0.33l-0.46-2.539l-0.591-0.801l-0.739-0.549l-0.4-0.15l-1.34,1.449l-0.5,0.101l-0.97-0.021
		l-0.82-0.22l-1.44-1.319l-0.68,0.029l-0.48,0.53l-0.189,0.5l0.1,0.71l0.761,1.59l0.14,0.58l-1.3,3.09l-0.58,0.561l-0.8,0.52
		l-1.511,0.45l-1.109,0.09l-4.891-0.181l-2.279-0.219l-1,0.06l-1.11,0.229l-1.91,1.01l-1.22,0.381l-1.14,0.13l-1.471,0.51
		l-1.16,0.851l-1.92,2.26l-0.25,0.039l0,0l-0.77-3.02l-0.18-1.02l-0.381-0.86l-0.109-0.45l-0.021-4.05l-0.14-0.93l-0.7-1.37
		l-1.41-1.551l-0.51-0.899l-0.83-1.09l-0.38-1.229l-0.42-1.031l-0.07-1.52l0.16-1.16l0.33-0.729l0.37-1.25l0.649-1.22l0.811-1.051
		l0.18-0.459l0.07-1.011l-0.08-3.78l-0.45-1.209l-0.26-1.58l-0.57-1.261l-0.55-0.88l-0.32-0.26l-0.29-0.09l-2.079-0.1l-0.261-0.15
		l-0.21-0.391l-0.02-8.39l-0.141-0.81l-0.38-0.9l-0.109-1l0.04-1.04l0.26-0.91l-1.641-0.729l-1.119-0.82l-0.75-0.391l-0.45-0.52
		l-0.141-0.63l0.03-0.64l0.12-0.471l0.42-0.869l0.101-0.631l-0.011-0.49l-0.2-0.59l-0.619-0.529l-4.67-2.291l-0.7-0.189l-0.74,0.07
		l-0.74,0.33l-1.14,0.3l-2.16,0.989l-1.96,0.15l-1.53,0.5l-9.55-0.02l-0.07-2.09l0.17-0.94l0.45-0.5l1.87-0.87l0.42-0.359l0.26-0.53
		l0.19-1.41l0.4-1.05l0.09-1.03l-0.021-4.521l-0.09-0.67l-0.45-1.029l-0.08-0.98l0.131-0.63l0.38-0.88l0.229-1.42l0.37-0.891
		l0.1-0.459l0.07-5.791l0.15-0.56l0.63-1.61l0.88-0.56l0.39-0.149l1.561-0.08l1.08,0.09l1.18,0.46l1.64,0.26l0.75,0.34l1.141,0.29
		l0.89,0.391l1.5,0.22l1,0.39l0.43-0.029l0.271-0.131l0.59-0.479l4.81-4.72l0.5-0.601l0.461-0.87l0.89-1.09l0,0l4.54,0.051
		l0.88,0.069l0.479,0.149l1.851,0.91l0.68,0.131l9.92,0.09l0.681,0.13l1.069,0.409l3.49,0.121l0.5,0.109l0.91,0.381l1.41,0.129
		l1.43-0.02l0.68-0.12l3.761-1.771l2.409,0.08l0.921,0.181l1.149,0.56l0.79,0.53l1.92,0.03l1.47,0.539l1.23,0.08l1.03-0.189
		l5.55-2.7l1.399-0.37l1.28-0.619l1.22-0.94l0.851-0.38l0.37-0.08l0.529,0.24l0.681,0.649l0.5,0.64l0.479,0.91l1.07,1.18l0.82,0.75
		l0.56,0.281l0.97,0.109l8.4,0.051l0.97-0.091l0.391-0.2l0.37-0.4l0.329-0.619l0.61-0.811l0.13-0.369l-0.03-0.24l-0.659-1.74l0,0
		l1.89,0.2l1.03,0.42l0.46,0.101l2.439,0.139l0.9,0.391l1.15,0.29l0.75,0.34l1.149,0.271l0.95,0.51l0.29,0.26l0.55,0.9l1.7,3.39
		l1.1,1.16l1.34,1.2l0.971-0.07l0.84,0.04l0.479,0.11l0.9,0.39l0.64,0.11l0.82,0.02l0.64-0.1l0.591-0.391l0.659-1.08l1.021-1.379
		l0.53-0.531l0,0l0.76,0.141l1.06,0.32l0.79,0.449l0.271,0.24l0.09,0.24l-0.05,0.37l-0.94,2.29l0.03,0.369l0.31,0.271l0.58,0.08
		l4.62-0.01l0.6,0.12l1.03,0.42l1.98,0.16l0.77,0.47l2.25,2.18l1.05,0.601l1.25,0.89l0.79,0.149h3.03l0.98,0.101l6.1,2.97l0.81,0.1
		l0.99-0.039l1.521-0.521l2.12-0.069l0.76-0.16l2.54-1.2l0.91-0.54l0.26-0.28l0.55-0.899l0.59-1.25l0.24-1.61l0.42-1.011l0.24-1.459
		l0.37-0.78l-0.021-0.37l-0.3-0.27l-0.57-0.08l-1.46,0.029l-0.75,0.211l-0.47,0.479l-0.84,1.75l-0.55,0.72l-1.021,0.91l-0.42,0.189
		l-0.47,0.08l-2.13-0.01l-0.94-0.14l-2.53-1.24l-1.13-0.829l-0.989-0.561l-0.341-0.43l-0.12-0.44v-2.229l-0.09-0.781l-1.279-2.639
		l-0.37-0.49l-0.58-0.521l-1.84-0.95l-0.17-0.209l-0.101-0.391l0.09-0.561l0.36-0.5l0.59-0.5l0.93-0.459l0.74-0.58l1.36-1.351
		L576.11,290.32z"/>
</g>
<g id="Layer_8">
	<path id="mckhetaMtianeti" fill="#000000" stroke="#FFFFFF" stroke-width="0.5" d="M594.2,142.811l4.42,0.629l2.439-0.709l3.171-0.721
		l3.029,0.301l1.3,0.619l1.11,1.131l1.19,1.939l2.39,2.37l2.85,3.93l2.931,3.71l1,1.01l2.93,2.351l0.8,1.229l0.66,3.68l0.19,0.421
		l0,0l-0.57,0.67l-0.45,0.88l-1.45,1.609l-1.02,2.031l-0.93,1.219l-1.95,3.881l0.01,0.89l0.43,1.011l0.261,0.989l0.35,0.74
		l0.12,0.63l0.05,5.109l-0.11,0.9l-0.39,0.57l-1.11,0.641l-1.89,1.719l-1.05,0.561l-0.49,0.37l-0.32,0.34l-0.3,0.54l-0.09,0.939
		l0.08,3.531l0.13,0.42l0.95,1.859l0.229,0.7l0.45,0.909l0.24,1.391l0.39,0.891l0.08,0.439v0.609l-0.17,0.721l-1.27,2.47
		l-0.521,0.431l-1.13,0.279l-0.9,0.37l-1.649,0.22l-0.75,0.32l-0.99,0.23l-0.479,0.289l-0.58,0.951l-0.84,1.1l-0.591,1.029
		l-3.359,3.311l-0.49,0.609l-0.16,0.44l-0.05,0.46l0.04,3.68l-0.101,0.93l-0.399,0.671l-1.99,1.93l-0.56,0.761l-0.301,1.119
		l-0.369,0.881l-0.21,1.469l-0.46,1.17l-0.08,3.361l-0.131,0.6l-0.42,1.01l-0.149,2.58l-0.391,0.66l-1.689,1.66l-0.22,0.39
		l-0.051,0.28l0.131,0.539l1.579,2.931l0.45,1.09l-0.08,0.47l-1.199,2.391l-0.061,0.47l0.271,0.47l1.38,1.34l0.479,0.631l0.61,1.25
		l0.28,1.14l1.01,2.08l-0.04,0.43l-0.13,0.261L598.2,255l-0.51,0.88l-0.761,0.95l-0.239,0.55l-0.07,0.761l0.05,0.909l0.1,0.44
		l0.381,0.88l0.25,1.351l0.3,0.25l0.78,0.219l0.739,0.33l1.65,0.25l1.04,0.42l1.979,0.181l1.48,0.51l2.32,0.12l1.04,0.41l1.14,0.3
		l1.01,0.78l1.93,1.99l0.801,1.51l0.35,1.039l-1.94,0.24l-1.17,0.451l-1.989,0.139l-2,0.961l-0.551,0.07l-1.01-0.4l-1.64-0.25
		l-1.28-0.6l-0.7-0.541l-1.729-1.729l-0.82-0.66l-1.38-0.63l-0.44,0.04l-0.26,0.12l-5.7,5.51l1.58,0.609l1.11,0.841l0.92,0.489
		l0.79,0.761l0.82,1.649l0.08,0.74v1.79l0,0l-1.21,0.511l-1.07,0.76l-0.39,0.06l-2.11-0.92l-3.09-0.069l-0.79-0.091l-2.16-1.04
		l-1-0.26l-0.73-0.33l-0.409-0.08l-0.41,0.1l-0.4,0.36l-0.38,0.74l-0.83,1.101l-0.41,0.77l-0.87,1.07l-0.649,1.239l-0.17,0.87
		l-0.011,2.301l-0.189,0.719l-0.58,0.701l-1.71,1.629l-0.59,0.431l-0.38,0.12l0,0l-1.16-0.43l-1.37-0.15l-0.42-0.12l-1.391-0.71
		l-1.779-1.689l-0.59-0.441l-1.28-0.609l-1.01-0.25l-0.82-0.37l-0.38,0.011l-0.29,0.229l-0.521,0.89l-0.58,1.26l-0.26,1.131
		l-0.689,1.35l-0.391,0.38l-0.87,0.46l-1.01,0.78l-0.99,0.45l-0.35,0.08l-0.36-0.1l-1.59-0.781l-0.74-0.109l-0.569,0.12l-0.91,0.53
		l-0.22,0.359l-0.061,0.61l0.101,0.63l0.42,0.87l0.12,0.47l0.02,0.62l-0.12,0.431l-0.27,0.299l-0.69,0.381l-1.41,0.35l-1.16,0.609
		l-0.699,0.761l-0.67,1.819l0,0l-0.53,0.531l-1.021,1.379l-0.659,1.08l-0.591,0.391l-0.64,0.1l-0.82-0.02l-0.64-0.11l-0.9-0.39
		l-0.479-0.11l-0.84-0.04l-0.971,0.07l-1.34-1.2l-1.1-1.16l-1.7-3.39l-0.55-0.9l-0.29-0.26l-0.95-0.51l-1.149-0.271l-0.75-0.34
		l-1.15-0.29l-0.9-0.391l-2.439-0.139l-0.46-0.101l-1.03-0.42l-1.89-0.2l0,0l-0.221-0.33l-0.199-1.189l-0.45-1.041l-0.08-0.629
		l0.03-0.471l0.27-0.49l2.49-1.289l0.2-0.17l0.17-0.391l0.06-0.76l-0.06-2.961l-0.12-0.619l-0.431-1.03l-0.079-1.44l0.1-1.119
		l0.66-1.74l0.34-0.25l0.44-0.08l3.6,0.05l1,0.12l1.01,0.439l0.42,0.041l0.521-0.15l0.649-0.95l0.641-1.38l0.13-0.641l0.02-2.18
		l-0.06-0.49l-0.17-0.459l-1.38-1.58l-0.511-0.9l-0.409-0.51l-2.87-2.83l-0.83-1l-1.83-3.609l-0.13-0.441l-0.061-0.649l0.021-5.659
		l-0.141-0.73l-0.33-0.51l-0.42-0.44l-3.09-2.931l0,0l0.96-1.859l0.28-0.29l0.38-0.17h0.29l0.86,0.399l0,0l0.52,0.24l1.24,0.971l0,0
		l0.76,0.41l0.96,0.709l0.38,0.041l0,0l0.23-0.09l0,0l0.86-0.631l0.75-0.38l0.449-0.521l0.15-0.729l-0.01-0.45l-0.21-0.72
		l-0.351-0.44l0,0l-0.92-0.949l0,0l-0.31-0.461l-0.3-1.119l-0.36-0.74l-0.12-0.58l0.01-0.75l0.26-0.71l0.421-0.46l0.5-0.37
		l1.05-0.55l0,0l0.46-0.42l0.439-0.62l0,0l0.53-1.13l0.32-1.26l0.56-1.11l0.36-0.41l0.979-0.55l1.4-1.189l1-0.57l0.39-0.381l2-3.97
		l0.101-0.96l0.01-12.029l-0.07-0.801l0,0l-0.16-0.439l0,0l-0.84-1.1l-0.5-0.891l-1.33-1.49l-0.5-0.9l-0.85-1.1l-1.32-2.609
		l-0.04-0.291l0.08-0.41l1.53-2.93l0.2-1.07l0.029-1.459l-0.1-0.881l-0.15-0.239l-0.22-0.14l-0.77-0.221l0,0l-0.75-0.32l0,0
		l-1.2-0.16l0,0l-0.3-0.039l0,0l-0.69-0.32l-1.979-1.859l-1.521-0.82l0,0l-0.54-0.221l0,0l-0.74-0.369l-1.279-0.34l-2.55-1.25
		l-0.601-0.5l-0.53-0.761l0,0l-0.34-0.899l0,0l-0.13-0.41l-0.479-0.2l-0.931-0.63l-0.77-0.391l-1.61-1.42l0,0l-0.26-0.17l0,0
		l-1.26-0.619l-1.38-0.141l0,0l-2.681,0.01l0,0l-0.91-0.14l-2.659-1.32l-1.811-1.67l-0.3-0.37l-0.271-0.52l-0.13-1.35l0.03-0.66
		l0.15-0.58l0.319-0.271l2.17-0.649l0.351-0.19l0,0l0.08-0.11l0,0l0.109-0.39l-0.04-0.41l0,0l-0.09-0.271l0,0l-0.76-1.469l0,0
		l-0.44-0.65l0,0l-0.52-0.26l0,0l-1.01-0.121l-0.721-1.109l0,0l-0.329-1.26l-0.66-1.15l-1.03-0.609l-1.13-0.28l-0.37-0.2l0,0
		l-0.29-0.29l0,0l-0.49-0.87l-0.77-0.98l-0.641-1.27l-0.149-0.6l0,0l-0.021-0.32l0,0l-0.01-1.58l-0.12-0.41l-0.189-0.199l-1.94-0.69
		l-3.08-0.11l0,0l-0.31-0.09l0,0l-0.78-0.57l-1.98-2.029l-0.34-0.48l-0.87-1.779l0,0l-0.26-0.49l0,0l-0.21-0.69l0,0l-0.09-0.899l0,0
		l-0.53-1.551l2.5-0.56l0.971-0.649l0.479-0.461l1.01-3.58l1.13-2.1l1.131-1.85l0.899-1.271l2.63-1.83l2.44-1.09l2.76-1.021
		l2.5-0.43l1.76,0.03l3.88,0.54l1.53,0.07l0.96-0.28l1.33-0.601l1.3-0.779l2.49-2.04l2.08-1.36l2.04-0.91l1.76-0.369l2.021,0.069
		l9.359,1.181l3.09-0.311l1.95-0.5l1.99-0.221l2.95,0.691l1.2,0.569l1.12,0.69l0.71,0.93l0.93,0.9l0.79,0.969l2.25,12.25l0.77,1.701
		l0.641,0.56l1.12,0.69l1.13,0.129l0.699-0.09l1.74-1.029l2.33-5.62l1.67-5.56l2.25-3.73l1.061-1.48l1.06-1.18l1.08-0.859
		l1.59-0.471l1.69-0.33l2.54-0.119l3.239,0.67l1.9,0.629l2.91,2.351l4.64,4.59L594.2,142.811z"/>
</g>
<g id="Layer_6">
	<path id="samckheJavakheti" fill="#000000" stroke="#FFFFFF" stroke-width="0.5" d="M403.08,267.141l1.06-0.111l1.21-0.459l0.66-0.041
		l0.66,0.08l2.311,1.091l2.27,0.11l0.63,0.14l0.53,0.35l1.08,0.979l0.41,0.25l0.47,0.121l1.3,0.07l0.64,0.109l2.53,1.21l0.41,0.36
		l0.25,0.539l0.01,2.5l0.141,0.801l0.25,0.4l0.43,0.439l1.43,0.83l0.73,0.8l0.149,0.45l0.16,1.279l0.351,0.91l0.18,1.2l0.189,0.38
		l0.391,0.2l0.45,0.05l5.989-0.01l-0.069,1.141l0.06,0.989l0.43,1.21l0.16,1.04l0.101,0.261l0.2,0.199l0.51,0.141l2.14,0.09
		l1.41,0.64l0.64,0.479l2.221,2.16l0.71,0.34l2.92,0.07l0.8-0.06l0.43-0.13l2.09-1.051l4.66,0.021l1.34,0.149l0.891,0.381l1,0.26
		l0.76,0.33l1.14,0.29l1.44,0.649l0.86,0.541l0.17,0.219l0.149,0.75l-0.14,2.641l0,0l-0.89,1.09l-0.461,0.87l-0.5,0.601l-4.81,4.72
		l-0.59,0.479l-0.271,0.131l-0.43,0.029l-1-0.39l-1.5-0.22l-0.89-0.391l-1.141-0.29l-0.75-0.34l-1.64-0.26l-1.18-0.46l-1.08-0.09
		l-1.561,0.08l-0.39,0.149l-0.88,0.56l-0.63,1.61l-0.15,0.56l-0.07,5.791l-0.1,0.459l-0.37,0.891l-0.229,1.42l-0.38,0.88
		l-0.131,0.63l0.08,0.98l0.45,1.029l0.09,0.67l0.021,4.521l-0.09,1.03l-0.4,1.05l-0.19,1.41l-0.26,0.53l-0.42,0.359l-1.87,0.87
		l-0.45,0.5l-0.17,0.94l0.07,2.09l9.55,0.02l1.53-0.5l1.96-0.15l2.16-0.989l1.14-0.3l0.74-0.33l0.74-0.07l0.7,0.189l4.67,2.291
		l0.619,0.529l0.2,0.59l0.011,0.49l-0.101,0.631l-0.42,0.869l-0.12,0.471l-0.03,0.64l0.141,0.63l0.45,0.52l0.75,0.391l1.119,0.82
		l1.641,0.729l-0.26,0.91l-0.04,1.04l0.109,1l0.38,0.9l0.141,0.81l0.02,8.39l0.21,0.391l0.261,0.15l2.079,0.1l0.29,0.09l0.32,0.26
		l0.55,0.88l0.57,1.261l0.26,1.58l0.45,1.209l0.08,3.78l-0.07,1.011l-0.18,0.459l-0.811,1.051l-0.649,1.22l-0.37,1.25l-0.33,0.729
		l-0.16,1.16l0.07,1.52l0.42,1.031l0.38,1.229l0.83,1.09l0.51,0.899l1.41,1.551l0.7,1.37l0.14,0.93l0.021,4.05l0.109,0.45
		l0.381,0.86l0.18,1.02l0.77,3.02l0,0L468,386.59l-1.28-0.23l-2.27-1.209l-5.51,0.109l-1.57,0.131l-3.89-0.371l-1.04,0.131
		l-2.551,1.119l-3.989,2.74l-1.431,0.561l-0.83,0.67l-0.55,0.85l-1.729,2.16l-0.681,0.311l-1.779-0.34l-1.57-0.83l-1.2-0.44
		l-1.67-1.45l-1.95-1.09l-1,0.1l-1.729,1.16l-1.86,0.74l-2.75-0.03l-1.49-1.01l-1.35-1.261l-1.74-1.159l-1.06-0.29l-1.431-0.08
		l-1.43,0.16l-4.479,2.189l-1.54,0.84L410,390.87l-1.63-0.101l-0.96-1.84l-0.38-1.76l-0.49-1.32l-0.53-0.97l-1.63-1.899l-1.53-0.621
		l-2.25-0.76l-0.819-0.51l-1.67-1.26l-1.11-0.359l-1.1-0.08l-1.181,0.17l-4.439,1.299l-5.12,1.771l-3.11,0.66l-2.54,0.21l0.83-1.75
		l-0.21-0.859l-3.97-8.561l-0.71-0.721l-0.79-0.25l-1.11-0.149l-0.89,0.319l-1.79,1.101l-2.58-0.649l-0.89-0.681l0.5-0.54l1.47-0.85
		l1.22-0.53l1-0.29l1.83-1.07l1.54-1.569l1.01-0.671l0.07-0.469l0.47-0.36l0.221-0.421l-0.07-0.469l-0.4-0.5l-0.89-0.471l-0.79-0.29
		l-1.14-0.18l-1,0.06l-0.79-0.209l-0.57-0.791l-3.01-0.369l-0.601-0.971l-2.18-4.05l-0.53-0.72l-4.16-2.23l-2.25-0.15l-1.26-0.819
		l-1.39-0.511l-0.97-1.43l-0.82-1.55l-1.9-1.54l-0.46-0.83l0.03-0.93l-0.68-1.33l-0.86-0.641l-0.39-0.43V341.2l-0.46-0.82
		l-2.91-1.05l-1.61-2.26l-3.16-1.291l-0.25-0.609l0.101-1.15l-0.141-1.119l-0.79-0.711l-2.3,0.141l-1.149,0.58l-0.57,2.369
		l-0.61,1.361l-0.5,0.399l-0.58,0.03l-0.68-0.53l-0.65-0.72l-0.609-0.43l-0.931-0.221l-1.55-1.25l0.04-0.9l-0.32-0.75l-1.52-1.439
		l-0.1-0.65l0.5-1.359l0.819-0.58l0.87-0.29l1.04-0.82l-0.29-3.42l0.25-0.431l1.4-0.719l0.75-0.9l-0.29-1.91l-0.82-0.79l-4.25-0.101
		l-0.49,0.601l-0.26,0.511l-0.399,0.51l-0.431-0.11l-0.859-0.61l-1.15-0.25l-2.7-1.539l-0.79-0.031l-1.41-0.43l-1.54-0.14
		l-3.59,0.11l-4.069,1.199l-0.61,0.08l-1.19,0.4l-0.79,0.359l-1.68-0.24l-0.58,0.32l-0.64,1.18l-0.9,0.601l0,0l-0.819-2.69
		l-0.48-1.31l-0.35-0.72l-0.19-1.45l-0.239-0.56l-0.381-0.471l-2.22-2.209l-1.24-2.391l-0.851-0.75l-1.92-0.91l-0.42-0.35
		l-0.469-0.85l-1.511-1.73l-1.38-2.77l-0.18-0.83l-0.41-0.851l-0.141-0.58l0.051-1.5l0.33-0.681l1.699-1.68l0.391-0.64l0.109-0.81
		l-0.02-3.42l-0.03-0.65l-0.12-0.45l-1.63-3.21l-0.28-1.16l0,0l2.311-0.1l0.311-0.051l0.739-0.34l0.649-0.14h2.221l0.5,0.06
		l0.46,0.181l1.45,1.28l0.71,0.31h0.729l1.061-0.41l1.23-0.19l0.35-0.219l0.539-0.871l0.131-0.439l0.18-1.439l0.59-1.261l0.49-0.64
		l0.81-0.77l0.57-0.351l0.61-0.13l3.189,0.029l0,0l2.03,2.08l0.71,1.211l0.64,0.469l1.29-0.02l0.75,0.09l2.301,1.061l1.01,0.14
		l1.21,0.021l1.32-0.16l0.42-0.25l1.56-1.49l0.65-0.49l3.75-1.789l0.699-0.15h2.221l0.67,0.1l2.02,0.98l0.62,0.16l0.84,0.06
		l3.12-0.03l0.83,0.08l0.44,0.131l3.01,1.52l0.27,0.09l1.011,0.1l1.42-0.06l1.319-1.31l0.4-0.271l0.46-0.149l1.78-0.131l1.069-0.39
		l0.631-0.11l3.21-0.05l1.699-0.53l3.98-0.05l1.55-0.5l1.49-0.13l0.689-0.15l1.29,0.73l1.49,0.689l1.58-0.68l7.061-3.43l1.14-0.26
		l0.89-0.391l1.011-0.22l0.75-0.34l1.149-0.271l0.75-0.34l1.15-0.27l0.75-0.34l1.489-0.19l0.421-0.12l2.54-1.23l1.609-1.399l1.4-0.7
		l0.42-0.119l1.35-0.15l1.03-0.4l1.64-0.24l0.641-0.43l1.739-1.63l1.4-0.71l0.42-0.12l1.351-0.149l1.029-0.41L403.08,267.141z"/>
</g>
<g id="Layer_7">
	<path id="rachaLechkhumi" fill="#000000" stroke="#FFFFFF" stroke-width="0.5" d="M394.91,112.189l0.35,0.021l1.51-0.399l1.211-0.511
		l2.35-0.13l3.05,0.24l4.3,0.57l2.851,1.24l0.95,0.92l1.06,0.739l1.32,0.38l3.09,0.211l0.99,0.149l1.13,0.34l1.899,1.08l2.41,1.97
		l0.76,0.74l0.44,0.88l0.46,1.66l0.51,0.739l0.94,0.74l0.95,0.931l1.449,1.88l0.58,0.26l0.66,0.15l1.771-0.49l1.13,0.23l1.06,0.41
		l1.24,1l1.05,1.479l1.67,1.229l5.101,2.07l0.359,1.43l0,0l0.19,2.801v3.35l-1.12,3.359l0,0l-2.42,0.931l-4.29,0.181l-0.19,2.799
		l-2.05,1.301l-2.42,0.75l-2.24,1.119l0,0l-3.17,0.371l0,0l-0.74,1.859l-1.489,2.051l-0.931,2.049l-2.43,0.381l0,0l-2.61,2.42l0,0
		l-0.18,2.42l1.49,1.49l-0.19,1.869l0,0l0.19,2.23l0,0l1.49,1.311L420.77,172l0,0l-0.369,2.609l0,0l-0.75,3.721l-1.49,3.92
		l0.75,3.54v2.61l-0.391,2.18l0,0l-0.819-0.15l-5.67-2.85l-0.62-0.16l-1.15,0.061l-1.06,0.43l-1.62,0.25l-0.76,0.33l-1.141,0.289
		l-0.899,0.391l-0.811,0.09l-1.3-0.109l-1.22-0.471l-1.95-0.189l-1.04-0.43l-1-0.25l-0.75-0.351l-0.81-0.14l-6.03-0.01l-0.64,0.109
		l-1.04,0.41l-1.4,0.16l-1.95-0.131l-1.82,0.011l-0.569,0.25l-0.13,0.21l-0.09,0.439l-1.021,0.961l-4.229,2.129l-0.351,0.41
		l-0.86,1.771l-0.64,0.81l-1.57,1.45l-0.899,0.47l-1.13,0.86l-1.391,0.67l-1.79,0.261l-1.21,0.75l-0.909-0.25l-1.091-0.021
		l-0.59,0.11l-1.03,0.42l-1.979,0.15l-0.53,0.289l-1.189,1.09l-0.24,0.11h-0.28l-0.46-0.28l-1.1-1.029l-1.15-0.67l-1.5-1.32
		l-2.53-1.28l-0.72-0.17l-2.82,0.011l-0.42-0.051l-0.359-0.18l-0.15-0.221l-0.21-0.77l-0.38-0.88l-0.17-2.75l-0.38-0.89l-0.29-1.131
		l-0.55-0.75l-5.311-5.22l-1.03-0.59l-1.27-0.91l-1.42-0.44l-0.061-0.16l-0.17-0.1l-1.51-0.279l-0.27-0.17l-0.66-0.681l-0.55-0.979
		l-0.19-0.18l-2.229-0.9l-0.421-0.03l-0.489,0.16l-0.2,0.36l-0.42,1.229l-0.311,1.59l-0.22,0.25l-0.26,0.11l-1.07,0.16l-1.229,0.449
		h-0.99l-0.62-0.17l-0.229-0.16l-1.271-1.16l-0.52-0.299l-1.5-0.211l-1.171-0.49L319.31,180l-0.42,0.17l-0.31,0.28l-1.07,2.1
		l-0.63,0.53l-1.14,0.529l-1.15,0.271l-0.75,0.33l-1.14,0.29l-0.891,0.38l-1.189,0.091l-1.271-0.16l0.12-1.42l-0.029-2.931
		l-0.19-0.601l-0.9-1.229l-0.17-0.94l0.08-1.779l0.44-1.04l0.12-0.46l0.01-1.471l-0.28-0.75l-1.28-1.52l0,0l-0.819-1.449
		l-0.28-1.771l-1.25-2.521l-0.939-1.229l-1.03-2.05l-0.86-1.101l-0.41-0.79l-0.859-1.1l-0.4-0.78l-1.52-1.739l-0.74-1.531
		l-0.09-0.939l-0.01-4.02l0.149-1.08l0.34-0.521l0.46-0.43l1.15-0.62l1.26-0.9l-1.09-1.05l-0.63-1.12l-1.32-1.5l-0.55-1.02
		l-0.811-0.811l-3.31-1.649l-1.239-0.96l-1.261-0.641l-1.28-0.34l-0.9-0.39l-1.639-0.24l-1.73-1.021l-2.561-2.379l-0.89-0.471
		l-1.13-0.88l-2.28-1.159l-0.69-0.74l-0.699-1.23l-1.051-0.95l0.74-1.21l2.67-5.42l0.33-0.449l0.34-0.24l0.641-0.131h4.46l0.479-0.1
		l0.9-0.37l1.78-0.12l0.59-0.189l0.399-0.36l1.291-2l0.26-1.62l0.359-0.91l0.15-1.08l0.221-0.529l0.239-0.15l0.601-0.1l2.52,0.06
		l0.811,0.14l4.689,2.33l0.98,0.101l4.489,0.04l0.59,0.119l1.04,0.42l1.98,0.181l1.42,0.649l3.13,1.621l0.74,0.18l4.21,0.04
		l0.76,0.149l0.88,0.391l0.891,0.02l2.8-1.359l1.74-1.5l0.779-0.41l0.96-0.75l0.561-0.17l0.529,0.13l3,1.54l1.141,0.289l0.899,0.381
		l1.641,0.25l1.27,0.609l0.73,0.57l1.979,2l0.4,0.29l0.439,0.149l0.74-0.029l0.88-0.37l0.49-0.11l2.23-0.109l1.56-0.51l6.16-0.021
		l0.67-0.09l1.22-0.479l0.95-0.021l0.51,0.26l0.54,0.91l0.11,0.431l0.12,1.359l0.529,1.08l0.431,0.311l0.689,0.01l0.88-0.391l1-0.25
		l0.421-0.199l0.979-0.871l0.57-0.779l0.14-1.061l-0.05-6.02l0.05-0.471l0.2-0.399l0.22-0.14l2.54-0.86l0.641-0.989l0.369-1.4
		l0.551-1.15l0.369-0.5l0.7-0.6l1.021-0.551l1.819-1.72l1.23-0.69l1.08-1l0.68,0.511l0.94,0.479l0,0l0.45,0.391l1.439,0.41l6.79,1.6
		l6.93,3.27l1.061,1.11l1.609,0.74L394.91,112.189z"/>
</g>
<g id="Layer_4">
	<path id="samkhretOseti" fill="#000000" stroke="#FFFFFF" stroke-width="0.5" d="M443.68,160.529l0.69,0.051l0.59-0.07l2.271-0.89
		l0.729-0.101l0.771,0.121l1.689,2.209l0.91,0.301l0.88-0.28l0.97-0.94l0.84-0.209l0.73,0.26l1.41,1.479l0.729,0.12l1.28,0.01
		l1.67,0.721l2.84,0.869l1.99,1.01l0.92,0.021l1.8-0.53l1.141-1.039l1.08-1.271l3.109-3.11l1.15-1l1.03-0.5l2.989,0.37l3.16-0.979
		l2.03-0.82l1.1-0.16l0.771,0.04l1.74,0.69l1.689-0.16l1.14-0.391l1.29-0.85l0.7-0.32l1.46-0.33l0.53,1.551l0,0l0.09,0.899l0,0
		l0.21,0.69l0,0l0.26,0.49l0,0l0.87,1.779l0.34,0.48l1.98,2.029l0.78,0.57l0,0l0.31,0.09l0,0l3.08,0.11l1.94,0.69l0.189,0.199
		l0.12,0.41l0.01,1.58l0,0l0.021,0.32l0,0l0.149,0.6l0.641,1.27l0.77,0.98l0.49,0.87l0,0l0.29,0.29l0,0l0.38,0.2l1.12,0.28
		l1.03,0.609l0.66,1.141l0.329,1.27l0,0l0.721,1.109l1.01,0.121l0,0l0.52,0.26l0,0l0.44,0.65l0,0l0.76,1.469l0,0l0.09,0.271l0,0
		l0.04,0.41l-0.109,0.39l0,0l-0.08,0.11l0,0l-0.34,0.19l-2.181,0.649l-0.319,0.271l-0.15,0.58l-0.03,0.66l0.13,1.35l0.271,0.52
		l0.3,0.36l1.811,1.68l2.659,1.32l0.91,0.14l0,0l2.681-0.01l0,0l1.38,0.141l1.26,0.619l0,0l0.26,0.17l0,0l1.61,1.42l0.77,0.391
		l0.931,0.63l0.479,0.2l0.13,0.41l0,0l0.34,0.899l0,0l0.53,0.761l0.601,0.5l2.55,1.25l1.279,0.34l0.74,0.369l0,0l0.54,0.221l0,0
		l1.521,0.82l1.979,1.859l0.69,0.32l0,0l0.3,0.039l0,0l1.2,0.16l0,0l0.75,0.32l0,0l0.77,0.221l0.22,0.14l0.15,0.239l0.1,0.881
		l-0.029,1.459l-0.2,1.07l-1.53,2.93l-0.08,0.41l0.04,0.291l1.32,2.609l0.85,1.1l0.5,0.9l1.33,1.48l0.5,0.9l0.84,1.1l0,0l0.16,0.439
		l0,0l0.07,0.801l-0.01,12.029l-0.141,1.11l-1.819,3.59l-0.32,0.44l-1.21,0.74l-1.4,1.189l-0.979,0.55l-0.36,0.41l-0.56,1.11
		l-0.32,1.26l-0.53,1.13l0,0l-0.439,0.62l-0.46,0.42l0,0l-1.05,0.55l-0.5,0.37l-0.421,0.46l-0.26,0.71l-0.01,0.75l0.12,0.58
		l0.36,0.74l0.3,1.119l0.31,0.461l0,0l0.92,0.949l0,0l0.351,0.44l0.21,0.72l0.01,0.45l-0.14,0.729l-0.46,0.521l-0.75,0.38
		l-0.86,0.631l0,0l-0.23,0.09l0,0l-0.38-0.041l-0.95-0.72l-0.77-0.399l0,0l-1.24-0.971l-0.52-0.24l0,0l-0.86-0.399h-0.29l-0.38,0.17
		l-0.28,0.29l-0.96,1.859l-2,0.07l-2.359-0.06l-0.471-0.101l-0.91-0.379l-1.46-0.221l0,0l-0.279-0.1l0,0l-0.78-0.32l-1.63-0.15l0,0
		l-0.48-0.08l0,0l-1.21-0.459l-1.31-0.07l-0.49,0.05l-1.07,0.399l-0.979,0.24l0,0l-0.37,0.2l0,0l-0.37,0.399l-0.899,1.881
		l-0.641,0.99l0,0l-1.01,0.619l0,0l-0.78,0.351l-1.2,0.78v-1.9l0,0l0.051-2.32l-0.051-0.49l-0.21-0.41l0,0l-0.279-0.17l-0.83-0.1
		l0,0l-0.55,0.02l0,0l-0.891,0.111l-0.99,0.379h-0.25l-0.229-0.1l0,0l-0.17-0.24l0,0l-0.09-0.92l0.04-1.75l0,0l0.029-0.51l0,0
		l0.08-0.48l0.471-1.17l0,0l0.13-0.56l0,0l0.18-0.45l-1.09-1.27l-1.86-1.301l-1.87-1.68l0,0l-2.6-1.119h-1.87l-1.68,0.559
		l0.189,1.871l-0.189,2.42l0,0l-1.3,0.56l-1.681-0.37l0,0l-0.93-1.5l-0.37-1.67l-0.19-1.68l-0.739-1.68l0,0l-1.681-1.301
		l-1.489-2.609l0,0l-0.37-2.24l-1.5-2.23l-1.49-2.609l-1.3-1.68l0,0l-0.931-1.121l-1.68,0.19l-1.86,2.05l0,0l-2.43,1.301l0,0
		l-2.609,0.93l-2.79,2.05h-2.421l-2.06-0.56l-1.67,2.99l-0.37,2.049l0.13,0.58l0,0l0.04,0.25l0,0l0.05,1.17l0,0l0.12,0.381l0,0
		l0.07,0.09l-1.91,0.689l0,0l-2.229,0.19l0,0l-1.681-0.56l-0.189,2.049l-2.051,4.291l-1.67,1.119h-1.869l-2.051-0.56l-1.12-1.12
		l-0.739-2.05l-0.37-1.489l0,0l1.109-1.681l0,0l-2.79-0.931l-3.359-0.93h-2.23l-0.93,1.85L435,236.4l0,0l-0.15-0.23l0,0l-0.319-0.62
		l0,0l-0.181-0.21l0,0l-0.33-0.26l-3.399-1.689l-5.08-5l-1.01-0.781l0,0l0.069-1.239l0.19-0.86l0,0l0.29-0.609l0.13-0.601
		l0.021-3.36l-0.091-0.77l-0.399-0.891l-0.3-1.119l-0.421-1.02l0.021-0.73l0.44-1.01l0,0l0.239-1l0,0l0.54-1.11l0,0l0.15-0.24l0,0
		l0.51-0.46l0,0l1.25-0.609l0,0l0.54-0.221l0.65-0.47l0.59-0.569l0.58-0.761l0.38-0.72v-1.83l-1.311-1.12l-2.05-0.37l-2.42-0.93
		l-1.68-0.381l-2.24-1.299l-0.74-1.871l-0.189-1.859l2.05-0.75l0.189-2.04l-1.31-1.681l-1.49-0.56l-0.37-1.31v-1.67l0.561-3.17
		v-2.61l-0.75-3.54l1.49-3.92l0.75-3.721l0,0L420.77,172l0,0l-0.369-2.609l-1.49-1.311l0,0l-0.19-2.23l0,0l0.19-1.869l-1.49-1.49
		l0.18-2.42l0,0l2.61-2.42l0,0l2.43-0.381l0.931-2.049l1.489-2.051l0.74-1.859l0,0l3.17-0.371l0,0l2.24-1.119l2.42-0.75l2.05-1.301
		l0.19-2.799l4.29-0.181l2.42-0.931l0,0l1.12-3.359v-3.35l-0.19-2.801l0,0l-0.359-1.43l1,0.41l1.97,1.23l0.97,1.26l0.54,1.1
		l0.17,1.1l-0.16,1.61l-4.35,8.681l-1.36,1.189l-0.779,0.51l-0.771,0.28l-0.56,0.87l-0.521,0.619l-0.26,0.511l-0.08,0.59l0.14,1.28
		l3.53,5.27L443.68,160.529z"/>
</g>
<g id="Layer_5">
	<path id="shidaKartli" fill="#000000" stroke="#FFFFFF" stroke-width="0.5" d="M477.99,223.811l1.3,1.68l1.49,2.609l1.5,2.23l0.37,2.24
		l0,0l1.489,2.609l1.681,1.301l0,0l0.739,1.68l0.19,1.68l0.37,1.67l0.93,1.5l0,0l1.681,0.37l1.3-0.56l0,0l0.189-2.42l-0.189-1.871
		l1.68-0.559h1.87l2.6,1.119l0,0l1.87,1.68l1.86,1.301l1.09,1.27l-0.18,0.45l0,0l-0.13,0.56l0,0l-0.471,1.17l-0.08,0.48l0,0
		l-0.029,0.51l0,0l-0.04,1.75l0.09,0.92l0,0l0.17,0.24l0,0l0.229,0.1h0.25l0.99-0.379l0.891-0.111l0,0l0.55-0.02l0,0l0.83,0.1
		l0.279,0.17l0,0l0.21,0.41l0.051,0.49l-0.051,2.32l0,0v1.9l1.2-0.78l0.78-0.351l0,0l1.01-0.619l0,0l0.641-0.99l0.899-1.881
		l0.37-0.399l0,0l0.37-0.2l0,0l0.979-0.24l1.07-0.399l0.49-0.05l1.31,0.07l1.21,0.459l0,0l0.48,0.08l0,0l1.63,0.15l0.78,0.32l0,0
		l0.279,0.1l0,0l1.46,0.221l0.91,0.379l0.471,0.101l2.359,0.06l2-0.07l0,0l3.09,2.931l0.42,0.44l0.33,0.51l0.141,0.73l-0.021,5.659
		l0.061,0.649l0.13,0.441l1.83,3.609l0.83,1l2.87,2.83l0.409,0.51l0.511,0.9l1.38,1.58l0.17,0.459l0.06,0.49l-0.02,2.18l-0.13,0.641
		l-0.641,1.38l-0.649,0.95l-0.521,0.15l-0.42-0.041l-1.01-0.439l-1-0.12l-3.6-0.05l-0.44,0.08l-0.34,0.25l-0.66,1.74l-0.1,1.119
		l0.079,1.44l0.431,1.03l0.12,0.619l0.06,2.961l-0.06,0.76l-0.17,0.391l-0.2,0.17l-2.49,1.289l-0.27,0.49l-0.03,0.471l0.08,0.629
		l0.45,1.041l0.199,1.189l0.221,0.33l0,0l0.659,1.74l0.03,0.24l-0.13,0.369l-0.61,0.811l-0.329,0.619l-0.37,0.4l-0.391,0.2
		l-0.97,0.091l-8.4-0.051l-0.97-0.109l-0.56-0.281l-0.82-0.75l-1.07-1.18l-0.479-0.91l-0.5-0.64l-0.681-0.649l-0.529-0.24
		l-0.37,0.08l-0.851,0.38l-1.22,0.94l-1.28,0.619l-1.399,0.37l-5.55,2.7l-1.03,0.189l-1.23-0.08l-1.47-0.539l-1.92-0.03l-0.79-0.53
		l-1.149-0.56l-0.921-0.181l-2.409-0.08l-3.761,1.771l-0.68,0.12l-1.43,0.02l-1.41-0.129l-0.91-0.381l-0.5-0.109l-3.49-0.121
		l-1.069-0.409l-0.681-0.13l-9.92-0.09l-0.68-0.131l-1.851-0.91l-0.479-0.149l-0.88-0.069l-4.54-0.051l0,0l0.14-2.641l-0.149-0.75
		l-0.17-0.219l-0.86-0.541l-1.44-0.649l-1.14-0.29l-0.76-0.33l-1-0.26l-0.891-0.381l-1.34-0.149l-4.66-0.021l-2.09,1.051l-0.43,0.13
		l-0.8,0.06l-2.92-0.07l-0.71-0.34l-2.221-2.16l-0.64-0.479l-1.41-0.64l-2.14-0.09l-0.51-0.141l-0.2-0.199l-0.101-0.261l-0.16-1.04
		l-0.43-1.21l-0.06-0.989l0.069-1.141l-5.989,0.01l-0.45-0.05l-0.391-0.2l-0.189-0.38l-0.18-1.2l-0.351-0.91l-0.16-1.279
		l-0.149-0.45l-0.73-0.8l-1.43-0.83l-0.43-0.439l-0.25-0.4l-0.141-0.801l-0.01-2.5l-0.25-0.539l-0.41-0.36l-2.53-1.21l-0.64-0.109
		l-1.3-0.07l-0.47-0.121l-0.41-0.25l-1.08-0.979l-0.53-0.35l-0.63-0.14l-2.27-0.11l-2.311-1.091l-0.66-0.08l-0.66,0.041l-1.21,0.459
		l-1.06,0.111l0,0l-0.11-1.051l-0.47-1.18l-0.07-1.131l0.13-0.949l0.631-1.24l0.609-0.76l1.21-1.16l0.521-0.391l0.93-0.5l1.98-1.77
		l1.13-0.66l0.399-0.57l0.101-0.959l-0.021-8.551l0.13-0.789l0.38-0.881l0.11-1.039l0.69-0.5l4.33-2.061l0.869-0.73l0.73-1.22
		l1.42-1.59l0.64-1.25l0.33-1.25l0.391-0.88l0.229-1.62l0.351-0.729l0.27-1.141l0.61-1.24l0.59-0.57l2.41-1.17l0,0l1.01,0.781
		l5.08,5l3.399,1.689l0.33,0.26l0,0l0.181,0.21l0,0l0.319,0.62l0,0l0.15,0.23l0,0l0.5,0.629l0.93-1.85h2.23l3.359,0.93l2.79,0.931
		l0,0l-1.109,1.681l0,0l0.37,1.489l0.739,2.05l1.12,1.12l2.051,0.56h1.869l1.67-1.119l2.051-4.291l0.189-2.049l1.681,0.56l0,0
		l2.229-0.19l0,0l1.91-0.689l-0.07-0.09l0,0l-0.12-0.381l0,0l-0.05-1.17l0,0l-0.04-0.25l0,0l-0.13-0.58l0.37-2.049l1.67-2.99
		l2.05,0.56h2.431l2.79-2.05l2.609-0.93l0,0l2.43-1.301l0,0l1.86-2.05l1.68-0.19L477.99,223.811z"/>
</g>
<g id="Layer_3">
	<path id="samegreloZemosvaneti" fill="#000000" stroke="#FFFFFF" stroke-width="0.5" d="M191.45,220.92l0.521,0.18l0.1,0.221l0.33,0.18h0.06
		l-0.06-0.221h0.52l0.359,0.351l-0.029,0.399l0.23,0.441v0.09l-0.201,0.129l-0.459,1.101l-0.62,0.569l-0.36-0.039l-0.029-0.09
		v-1.061l-0.131-0.529v-0.4l-0.13-0.311l-0.159-0.31l-0.101-0.351v-0.26L191.45,220.92z M288.26,57.86l-0.31,0.53l-0.14,0.67
		l0.189,0.7l0.37,0.4l0.55,0.22l0.96,0.18l1.03,0.07l2.369,0.99l2.4,0.76l2,1.02l1.85,1.21l1.921,0.84l1.409,0.81l1.261,1.14
		l1.11,0.59l1.81,0.44l1.479,0.62l1.261,1.1l3.58,1.72l1.989,0.51l0.37-0.26l0.15-0.67l-0.15-0.85l-1.45-3.21l0.221-0.78l0.52-0.19
		l1.66,0.29l0.92,0.03l1.48-0.6l1.14-0.11l4.87-1.45l1.74-0.04l1.33,0.26l0.739,0.55l0.78,0.41l0.67,0.63l1.03,0.15l2.62-0.63
		l2.62,0.92l3.51,0.22l0.33,0.66l0.109,1.33l0.33,0.92l0.48,0.48l0.81,0.44l1.55,0.63l0.881,0.66l0.109,0.78l-0.37,1.73l-0.41,1.179
		h1.44l1.33,0.15l2.36,0.33l1.989,0.41l1.92,0.85l1.841,1.181l1.729,0.67l0.771,0.409l0.109,0.591l-0.59,1.18l-0.59,0.851
		l-0.63,1.18l0.069,1.58l0.221,1.18l1.1,1.84l0.771,1.07l2.06,1.95l6.28,4.319l6.46,5.871l1.14,1.18l0.95,1.66l0.32,0.279l0,0
		l-0.94-0.48l-0.689-0.51l-1.08,0.99l-1.24,0.7l-1.82,1.72l-1.02,0.551l-0.7,0.6l-0.37,0.5l-0.55,1.15l-0.37,1.399l-0.64,0.99
		l-2.551,0.86l-0.22,0.149l-0.2,0.399l-0.05,0.471l0.061,6.02l-0.15,1.061l-0.57,0.779l-0.979,0.86l-0.42,0.21l-1,0.25l-0.87,0.391
		h-0.7l-0.42-0.32l-0.53-1.08l-0.12-1.359l-0.12-0.42l-0.54-0.91l-0.51-0.261l-0.95,0.021l-1.22,0.479l-0.68,0.101l-6.15,0.01
		l-1.56,0.51l-2.23,0.11l-0.479,0.11l-0.88,0.379l-0.74,0.03l-0.44-0.149l-0.399-0.291l-1.98-2l-0.729-0.569l-1.271-0.61l-1.64-0.24
		l-0.9-0.39l-1.149-0.29l-2.99-1.539l-0.54-0.131l-0.561,0.17l-0.96,0.75l-0.779,0.42l-1.75,1.49l-2.79,1.359l-0.891-0.01
		l-0.88-0.399l-0.76-0.14l-4.21-0.051l-0.74-0.18l-3.12-1.62l-1.42-0.649l-1.979-0.181l-1.03-0.42l-0.59-0.12l-4.5-0.039
		l-0.98-0.101l-4.68-2.33l-0.81-0.14l-2.53-0.051l-0.591,0.09l-0.25,0.15l-0.219,0.53l-0.15,1.08l-0.35,0.92l-0.261,1.62l-1.29,2
		l-0.41,0.369l-0.59,0.181l-1.779,0.12l-0.9,0.369l-0.48,0.101h-4.46l-0.64,0.14l-0.35,0.24l-0.33,0.45l-2.67,5.42l-0.74,1.21
		l1.05,0.96l0.69,1.229l0.689,0.73l2.28,1.16l1.12,0.88l0.89,0.46l2.569,2.391l1.73,1.02l1.641,0.24l0.89,0.39l1.28,0.33l1.26,0.64
		l1.24,0.961l3.31,1.649l0.81,0.82l0.551,1.021l1.32,1.5l0.64,1.119l1.09,1.051l-1.261,0.899l-1.149,0.62l-0.46,0.43l-0.35,0.52
		l-0.141,1.08l0.01,4.021l0.09,0.931l0.74,1.539l1.51,1.73l0.4,0.779l0.85,1.101l0.41,0.78l0.86,1.1l1.03,2.051l0.939,1.229
		l1.24,2.521l0.29,1.77l0.811,1.46l0,0l-1.71-0.17l-1.43,0.069l-0.561,0.24l-0.98,0.73l-0.779,0.21l-4.601-0.05l-0.96,0.149
		l-0.34,0.24l-0.26,0.319l-0.84,1.771l-0.36,0.5l-0.58,0.521l-1.18,0.64l-0.73,0.8l-0.19,0.61l0.011,3.01l-0.149,0.79l-0.24,0.34
		l-0.32,0.25l-1.9,0.88l-0.38,0.39l-0.159,0.41l-0.061,0.771l0.05,6.69l-0.06,0.609l-0.16,0.43l-0.381,0.49l-1.569,1.58l-0.67,1.15
		l-0.74,0.82l-2.19,2.129l-0.489,0.381l-1.04,0.56l-1.301,1.3l-2.92,5.76l-0.939,1.221l-1.029,2.02L274,210.6l-1.029,1.58
		l-1.07,2.021l0.209,0.75l0.08,1.021l-0.01,0.989l-0.16,0.57l-0.34,0.27l-1.369,0.2l-1.49,0.48l-0.34,0.289l-0.09,0.601l0.469,1.18
		l0.121,0.86l0.01,11.22l-0.11,1.21l-0.45,1.23l-0.1,1.539l-0.13,0.49l-0.181,0.28l-0.369,0.32l-0.641,0.35l-0.949,0.69
		l-0.471,0.199l-0.84-0.01l-0.9-0.38l-0.49-0.11l-0.689-0.01l-0.9,0.15l0,0l-0.35-0.95l-0.3-0.42l-1.05-0.58l-1-0.239l-0.9-0.42
		l-1.109-0.131l-5.271-0.07l-0.47-0.09l-0.76-0.35l-1.631-0.23l-0.92-0.6l-2.89-2.9l-0.82-0.649l-1.069-0.28l-0.891-0.38l-1.63-0.26
		l-0.92-0.38l-1.681-0.25l-1.449-0.791l-2.42,0.41l-0.76,0.33l-0.67,0.121l-5.67-0.011l-0.66,0.2l-1.84,0.859l-1.771,0.311
		l-0.92,0.35l-2.2,0.25l-1.41,0.41l-0.59,0.07l-8.029-0.07l-0.631,0.1l-0.9,0.351l-1.35,0.19l-0.42,0.129l-0.58,0.361l0,0
		l-0.199-0.49l-0.36-0.26l-0.66-0.311l-0.46-0.18l-0.16-0.09l-0.82-0.131l-0.1,0.041l-0.391,0.039l-0.43,0.09l-0.13,0.041h-0.56
		h-0.26l-0.69,0.09l-0.3-0.041l-0.131-0.039l-0.359-0.131l-0.13-0.18l-0.2-0.04l-0.1,0.13l-0.131,0.041l-0.199,0.039h-0.461
		l-0.159,0.131l0.069,0.569l0.26,0.13l0.49,0.79h0.201l0.029,0.44l-0.16,0.22l0.2,0.75l0.16,0.79l0.13,0.88l0.33,0.79l0.29,0.529
		l0.13,0.261l0.029,0.399l-0.199,0.44l-0.23,0.22l-0.13,0.131l-0.13,0.09l-0.391,0.13H199.3l-0.13-0.091l-0.26-0.35l-0.07-0.22
		l-1.15-1.58l-0.59-0.53l-0.26-0.699l-0.43-0.44l-0.721-1.06L195.49,234l-0.49-0.66l-0.359-0.31l-0.23-0.44l-0.16-1.72l-0.23-0.44
		l-0.129-0.09l-0.69-0.13l0.159-0.18l0.131-0.261l0.18-0.129l0.25-0.041l-0.029-0.22l-0.431,0.091l0.069-0.221l0.23-0.22l0.36-0.04
		l0.101-0.131l-0.07-0.26l-0.43-0.129l0.069-0.791l-0.29-0.75l-0.33-0.57l-0.689-0.969l0.069-0.44l0.33-0.79l0.521-0.62l0.13-0.399
		l0.329-0.44l0.23-0.13l0.131,0.09h0.199l0.1-0.09l0.36,0.039l0.03-0.129l-0.95-0.311l-0.59-0.75l-0.62-0.311l-0.52-0.039l-0.2-0.26
		l-0.16-0.181l-0.431-0.26l-0.199-0.13v-0.311l0.26-0.09l0.43-0.619l0.461-1.371l0.16-2.52l-0.461-3.311l-0.17-0.75l-0.65-1.939
		l-0.459-1.99l-0.431-1.63l-0.69-2.12l-0.659-1.859l-0.39-1.5l-0.59-1.641l-0.131-0.619l-0.199-0.621l-0.361-0.529l-0.229-0.62
		l-0.26-0.57l-0.29-1.02l-0.561-0.22l-0.89-0.881l-0.229-0.09l-0.461-0.22l-0.229-0.13l-0.59-0.49l-0.521-0.27l-0.359-0.181
		l0.13-0.62v-0.49l0.2-0.489l0.16-0.53l0.39-0.04l0.36-0.09h0.85l0.359-0.09l0.361-0.13l-0.07-0.35l-0.2,0.039l-0.229,0.04
		l-0.23,0.22l-0.23,0.09l-0.75-0.09h-0.199l-0.59,0.311l-0.261,0.75l-0.16,0.22l-0.1,0.44l0.069,0.529h-0.129l-0.07-0.09
		l-0.16-0.439l-0.03-0.4l-0.43-1.51l0,0l2.45-1.33l3.07-1.43l2.899-1.471l0.75-0.859l0.33-0.67l0.33-0.45l2.25-2.3l0.8-1.301
		l0.5-0.539l0.45-0.32l1.42-0.631l0.89-0.189l0.87-0.35l1.87-0.29l7.51-3.66l1.04-0.8l1.021-0.551l1.75-1.47l0.99-0.54l1.02-0.77
		l0.9-0.48l1.739-1.72l0.851-1.37l2.439-2.5l0.561-1.02l1.56-1.811l0.89-1.82l1.11-1.369l2-0.67l1.12-0.59l0.6-0.67l0.26-1.011
		l0.371-0.899l0.26-1.631l0.38-0.959l0.079-0.57l0.021-2.541l-0.1-0.719l-0.3-0.631l-0.66-0.85l-0.52-0.939l-2.361-2.431
		l-0.399-0.67l-0.26-1.03l-0.39-0.89l-0.101-1.16l-0.03-6.92l-0.09-0.479l-0.35-0.73l-0.09-0.49l-0.121-2.88l-0.569-1.601v-0.649
		l-1.44-1.44l-0.17-0.479l0.17-0.45l0.65-0.84l0.41-0.76l0.71-0.74l1.63-0.811l1.04-0.39l0.66-0.899l0.68-1.471l0.07-0.67
		l-0.17-0.51l-0.87-0.9l-0.17-0.58l-0.08-1.789l-0.15-0.461l-0.399-0.479l-0.591-0.29l-0.409-0.42l-0.28-0.68v-3.78l0.141-0.64
		l0.399-0.91l0.09-0.631l-0.159-0.739l-0.461-0.271l-1.859-0.039l-0.42-0.101l-0.221-0.17l-0.59-1.03l-0.18-1.311l-0.391-1.059
		l-0.06-0.551l0.21-0.43l0.35-0.32l2.461-1.141l0.549-0.129l1.811-0.141l1.051-0.39l1.76-0.32l3.289-1.579l1.961-0.171l1.539-0.5
		l2.221-0.05l0.85-0.1l0.95-0.34l1.2-0.17l0.41-0.181l0.24-0.28l0.469-0.939l0.141-1.2l0.17-0.61l0.54-1.13l0.33-0.479l0.521-0.48
		l1.129-0.64l0.94-0.8l1.66-1.711l0.25-0.39l1.91-3.93l0.2-0.89l1-2.07l0.27-1.69l0.471-1.15l-0.09-0.96l-1.111-2.26l0.011-4.02
		l0.13-0.62l1.02-2.16l0.26-1l0.971-2l0.3-1.17l0.341-0.76l0,0l0.049-0.18l3.041,0.47l0.739-0.15l3.011-1.91l0.959-0.01l1.221,0.25
		l1.109,0.4l0.931,0.69l1.79,1.87l1.109,0.18l1.771,0.1l0.989-0.49l1.65-1.75l0.85-0.67l0.781-0.01l1.889,0.28l0.66-0.19l0.371-0.48
		l0.33-1l0.369-0.63l0.439-0.3l0.851-0.23l3.29-0.32l1.33-0.38l2.471-1.2l1.219-0.04l0.701,0.29l1.629,1.1l1,0.88l0.19,0.78
		l-0.739,0.48l-0.631,0.56L288.26,57.86z"/>
</g>
<g id="Layer_2">
	<path id="tbilisi" fill="#000000" stroke="#FFFFFF" stroke-width="0.5" d="M551.15,300.439l0.67-1.819l0.699-0.761l1.16-0.609
		l1.41-0.35l0.69-0.381l0.27-0.299l0.12-0.431l-0.02-0.62l-0.12-0.47l-0.42-0.87l-0.101-0.63l0.061-0.61l0.22-0.359l0.91-0.53
		l0.569-0.12l0.74,0.109l1.59,0.781l0.36,0.1l0.35-0.08l0.99-0.45l1.01-0.78l0.87-0.46l0.391-0.38l0.689-1.35l0.26-1.131l0.58-1.26
		l0.521-0.89l0.29-0.229l0.38-0.011l0.82,0.37l1.01,0.25l1.28,0.609l0.59,0.441l1.779,1.689l1.391,0.71l0.42,0.12l1.37,0.15
		l1.16,0.43l0,0l-0.7,1.06l-1.36,1.351l-0.74,0.58l-0.93,0.459l-0.59,0.5l-0.36,0.5l-0.09,0.561l0.101,0.391l0.17,0.209l1.84,0.95
		l0.58,0.521l0.37,0.49l1.279,2.639l0.09,0.781v2.229l0.12,0.44l0.341,0.43l0.989,0.561l1.13,0.829l2.53,1.24l0.94,0.14l2.13,0.01
		l0.47-0.08l0.42-0.189l1.021-0.91l0.55-0.72l0.84-1.75l0.47-0.479l0.75-0.211l1.46-0.029l0.57,0.08l0.3,0.27l0.021,0.37l-0.37,0.78
		l-0.24,1.459l-0.42,1.011l-0.24,1.61l-0.59,1.25l-0.55,0.899l-0.26,0.28l-0.91,0.54l-2.54,1.2l-0.76,0.16l-2.12,0.069l-1.521,0.521
		l-0.99,0.039l-0.81-0.1l-6.1-2.97l-0.98-0.101h-3.03l-0.79-0.149l-1.25-0.89l-1.05-0.601l-2.25-2.18l-0.77-0.47l-1.98-0.16
		l-1.03-0.42l-0.6-0.12l-4.62,0.01l-0.58-0.08l-0.31-0.271l-0.03-0.369l0.94-2.29l0.05-0.37l-0.09-0.24l-0.271-0.24l-0.79-0.449
		l-1.06-0.32L551.15,300.439z"/>
</g>
</svg>
