<?xml version="1.0" encoding="utf-8"?>
<!-- Generator: Adobe Illustrator 16.0.3, SVG Export Plug-In . SVG Version: 6.00 Build 0)  -->
<!DOCTYPE svg PUBLIC "-//W3C//DTD SVG 1.1//EN" "http://www.w3.org/Graphics/SVG/1.1/DTD/svg11.dtd">
<svg version="1.1" xmlns="http://www.w3.org/2000/svg" xmlns:xlink="http://www.w3.org/1999/xlink" x="0px" y="0px"
	 width="1037.72px" height="370.227px" viewBox="0 0 1037.72 370.227" enable-background="new 0 0 1037.72 370.227"
	 xml:space="preserve">
	 <defs>
		<style type="text/css">
		<![CDATA[
			@font-face {
				font-family: MarketingScript;
				src: url('../font/MarketingScript.ttf');
			}
			#container{ cursor:pointer; }
		]]>
		</style>
	</defs>
<g id="container">
	<g id="Background" display="none">
		
			<radialGradient id="SVGID_1_" cx="441.3491" cy="625.5991" r="871.1389" gradientTransform="matrix(0.9988 0 0 0.9938 0.8524 1.509)" gradientUnits="userSpaceOnUse">
			<stop  offset="0" style="stop-color:#FFFFFF"/>
			<stop  offset="0.3874" style="stop-color:#FDFDFD"/>
			<stop  offset="0.6103" style="stop-color:#F4F4F4"/>
			<stop  offset="0.791" style="stop-color:#E6E6E6"/>
			<stop  offset="0.8976" style="stop-color:#DADADA"/>
			<stop  offset="1" style="stop-color:#B2B2B2"/>
		</radialGradient>
		<rect x="-20.837" y="-173.856" display="inline" opacity="0.7" fill="url(#SVGID_1_)" width="800" height="800"/>
	</g>
	<g id="Objects">
		<path fill="#FEE133" d="M257.768,180.219c2.458-5.051-2.476-70.276-1.642-71.791c3.387-1.323,18.376-9.542,18.804-11.264
			c0.428-1.722-5.574-11.621-7.042-11.763c-1.468-0.142-9.99,5.352-12.188,7.11c-1.486-0.342-0.177-21.908,1.751-23.066
			c1.928-1.161,22.699-12.43,35.91-20.548c11.075-6.802,16.525-20.512,15.615-22.031c-0.912-1.516-15.574-3.145-26.785,3.431
			c-13.372,7.848-33.081,20.886-35.013,22.043c-1.924,1.159-21.58-7.816-21.183-9.292c2.588-1.117,11.441-6.056,12.003-7.419
			c0.567-1.364-5.354-11.313-7.073-11.742c-1.721-0.431-16.02,8.937-18.779,11.305c-1.733,0.023-56.989-34.979-62.599-35.184
			c-5.615-0.206-13.213,3.063-12.128,4.867c1.085,1.806,42.369,34.322,49.167,41.445c6.801,7.123,18.575,25.884,18.125,27.695
			c-0.454,1.813-53.624,38.056-56.53,39.416c-2.908,1.359-18.65-11.782-25.846-12.554c-7.197-0.771-13.855,3.028-13.824,4.744
			c0.031,1.712,23.938,20.421,22.019,22.413c-1.487,1.54-12.071,11.774-11.422,12.854c0.647,1.077,14.657-3.456,16.714-4.043
			c2.661-0.761,7.942,29.135,9.438,29.969c1.499,0.833,7.982-3.26,10.682-9.973c2.701-6.721-1.504-26.785,1.064-28.715
			c2.563-1.928,59.543-31.831,61.356-31.376c1.813,0.449,12.84,19.658,15.933,29.012c3.092,9.347,12.394,61.068,13.479,62.873
			C248.857,190.442,255.314,185.269,257.768,180.219z"/>
		<path fill="#FEE133" d="M196.198,283.748c-4.208,3.902-10.309,9.718-18.58,16.533c-8.248,6.83-18.6,14.747-31.13,22.816
			c-6.27,4.021-13.104,8.045-20.493,11.91c-7.378,3.882-15.375,7.504-23.926,10.619c-2.154,0.729-4.294,1.572-6.519,2.22
			c-1.105,0.343-2.215,0.688-3.331,1.034c-1.117,0.34-2.257,0.615-3.391,0.928c-4.539,1.246-9.232,2.186-14.01,2.85
			c-1.196,0.139-2.397,0.276-3.604,0.416c-1.206,0.07-2.417,0.143-3.632,0.213c-1.214,0.109-2.428,0.039-3.646,0.052l-1.828-0.005
			l-1.818-0.132c-4.847-0.321-9.688-1.234-14.101-3.072l-1.628-0.737l-0.815-0.363c-0.264-0.137-0.511-0.3-0.768-0.447l-1.528-0.898
			c-0.246-0.152-0.528-0.288-0.747-0.455l-0.651-0.5l-1.313-0.976l-0.331-0.239l-0.363-0.34l-0.729-0.692l-1.463-1.389
			c-0.019-0.018-0.016-0.016-0.028-0.025c0.03,0.027,0.058,0.052,0.028,0.016l-0.139-0.172l-0.278-0.342l-0.557-0.683
			c-2.99-3.619-5.003-8.048-6.073-12.861c-1.08-4.818-1.252-9.989-0.82-15.213c0.444-5.229,1.458-10.524,2.82-15.809
			c1.379-5.285,3.248-10.535,5.304-15.751c2.084-5.215,4.528-10.355,7.104-15.465c5.223-10.205,11.319-20.158,17.927-29.89
			c3.355-4.836,6.803-9.64,10.432-14.338l2.702-3.54l2.785-3.488c1.839-2.341,3.759-4.624,5.681-6.91
			c3.849-4.563,7.808-9.055,11.843-13.485c2.015-2.209,4.068-4.331,6.099-6.503l6.42-6.546l6.361-6.249
			c2.189-2.05,4.347-4.135,6.561-6.155c4.439-4.026,8.911-8.008,13.478-11.854c1.434-1.205,2.872-2.401,4.318-3.586
			c-3.521-6.65-7.077-12.938-8.249-12.262c-0.65,0.375-2.609,1.576-4.917,2.939c-0.366,0.295-0.733,0.588-1.099,0.884
			c-2.445,1.932-4.795,3.978-7.188,5.979c-2.384,2.011-4.671,4.133-7.014,6.196c-2.318,2.09-4.577,4.244-6.869,6.365l-6.783,6.584
			l-6.413,6.599c-2.14,2.311-4.326,4.604-6.42,6.928c-4.176,4.64-8.285,9.336-12.187,14.192c-1.959,2.421-3.915,4.841-5.792,7.322
			l-2.838,3.697l-2.757,3.754c-3.668,5.005-7.104,10.164-10.469,15.336c-1.629,2.625-3.289,5.22-4.855,7.87
			c-1.54,2.669-3.111,5.305-4.55,8.018c-2.978,5.359-5.68,10.858-8.218,16.389c-2.441,5.589-4.737,11.206-6.669,16.942
			c-1.906,5.745-3.61,11.531-4.809,17.44c-1.199,5.903-1.979,11.896-2.068,17.935c-0.092,6.026,0.487,12.133,2.221,18.016
			c1.712,5.864,4.699,11.488,8.912,15.929l0.786,0.831l0.393,0.414l0.196,0.205c0.028,0.041,0.458,0.424,0.368,0.336l1.551,1.289
			l0.774,0.643l0.392,0.321l0.492,0.335l1.974,1.313c2.635,1.681,5.249,2.82,7.992,3.781c5.459,1.851,11.027,2.483,16.379,2.486
			l2.006,0.01l1.984-0.122c1.316-0.101,2.636-0.12,3.923-0.317c1.29-0.163,2.575-0.324,3.855-0.486c1.262-0.23,2.52-0.46,3.772-0.688
			c4.985-0.978,9.799-2.229,14.401-3.77c1.15-0.386,2.307-0.735,3.434-1.147c1.124-0.418,2.242-0.835,3.354-1.249
			c2.24-0.789,4.375-1.769,6.527-2.634c17.047-7.368,31.461-16.33,43.814-24.738c12.284-8.537,22.505-16.63,30.638-23.614
			c8.147-6.973,14.273-12.754,18.438-16.705c0.838-0.825,1.574-1.55,2.25-2.215l-0.025-0.024
			C197.782,282.208,197.042,282.929,196.198,283.748z"/>
		<path fill="#FEE133" d="M159.971,281.41c-8.249,6.83-18.6,14.747-31.131,22.816c-6.27,4.022-13.103,8.046-20.493,11.91
			c-7.378,3.883-15.375,7.505-23.926,10.62c-2.154,0.729-4.294,1.571-6.519,2.218c-1.105,0.344-2.216,0.688-3.331,1.035
			c-1.117,0.34-2.257,0.614-3.392,0.927c-4.539,1.247-9.231,2.188-14.01,2.852c-1.196,0.138-2.397,0.276-3.604,0.415
			c-1.206,0.071-2.417,0.143-3.632,0.213c-1.215,0.109-2.428,0.04-3.646,0.053l-1.828-0.006l-1.818-0.132
			c-4.848-0.321-9.688-1.234-14.101-3.072l-1.628-0.735l-0.814-0.365c-0.264-0.135-0.511-0.298-0.768-0.445l-1.528-0.9
			c-0.247-0.152-0.528-0.286-0.748-0.454l-0.651-0.499l-1.313-0.977l-0.332-0.238l-0.362-0.341l-0.73-0.692l-1.463-1.388
			c-0.023-0.022-0.021-0.021-0.034-0.032c0.033,0.03,0.068,0.061,0.035,0.021l-0.139-0.172l-0.279-0.343l-0.557-0.682
			c-2.99-3.62-5.003-8.047-6.073-12.862c-1.081-4.816-1.253-9.988-0.821-15.212c0.444-5.229,1.459-10.524,2.82-15.808
			c1.379-5.286,3.248-10.535,5.304-15.751c2.083-5.217,4.527-10.355,7.104-15.466c5.223-10.204,11.318-20.157,17.926-29.89
			c3.356-4.837,6.803-9.639,10.431-14.338l2.703-3.54l2.785-3.488c1.839-2.341,3.759-4.624,5.681-6.909
			c3.85-4.563,7.808-9.057,11.843-13.487c2.015-2.208,4.068-4.33,6.099-6.502l6.42-6.547l6.361-6.247
			c2.19-2.051,4.347-4.136,6.56-6.155c4.439-4.026,8.911-8.009,13.479-11.855c0.028-0.023,0.056-0.046,0.083-0.069
			c1.877-3.272,3.875-6.511,4.379-7.386c0.626-1.084-4.725-4.216-10.804-7.47c-1.207,0.959-2.406,1.93-3.606,2.901
			c-2.445,1.932-4.794,3.978-7.188,5.978c-2.385,2.012-4.671,4.134-7.013,6.198c-2.318,2.09-4.578,4.243-6.87,6.365l-6.783,6.583
			l-6.412,6.6c-2.14,2.31-4.327,4.603-6.421,6.927c-4.176,4.64-8.285,9.335-12.186,14.193c-1.96,2.421-3.916,4.841-5.792,7.321
			l-2.837,3.697l-2.757,3.754c-3.668,5.006-7.104,10.163-10.468,15.336c-1.629,2.626-3.29,5.22-4.855,7.871
			c-1.539,2.668-3.111,5.304-4.55,8.017c-2.979,5.36-5.681,10.858-8.218,16.39c-2.441,5.587-4.737,11.204-6.669,16.941
			c-1.906,5.745-3.609,11.532-4.808,17.44c-1.2,5.904-1.979,11.896-2.068,17.935c-0.091,6.026,0.487,12.133,2.222,18.017
			c1.712,5.864,4.699,11.487,8.912,15.928l0.786,0.832l0.393,0.412l0.196,0.207c0.029,0.04,0.457,0.422,0.368,0.336l1.552,1.288
			l0.774,0.642l0.392,0.322l0.493,0.335l1.974,1.314c2.635,1.679,5.249,2.819,7.991,3.781c5.46,1.851,11.028,2.482,16.379,2.485
			l2.006,0.009l1.983-0.122c1.316-0.1,2.636-0.119,3.924-0.317c1.29-0.163,2.575-0.325,3.855-0.486c1.262-0.23,2.52-0.46,3.772-0.688
			c4.984-0.977,9.799-2.228,14.401-3.77c1.15-0.387,2.307-0.734,3.434-1.147c1.124-0.419,2.242-0.834,3.354-1.249
			c2.24-0.789,4.375-1.769,6.527-2.634c17.047-7.369,31.461-16.33,43.814-24.738c12.284-8.536,22.505-16.63,30.638-23.614
			c0.536-0.459,1.041-0.898,1.559-1.347l-0.173-0.174C161.015,280.538,160.51,280.964,159.971,281.41z"/>
	</g>
	<g id="Layer_3">
		<text transform="matrix(0.855 0 0 1 133.5376 322.3569)"><tspan x="0" y="0" fill="#FEE133" font-family="'MarketingScript'" font-size="200">L</tspan><tspan x="134" y="0" font-family="'MarketingScript'" font-size="200">émi Voyage</tspan></text>
	</g>
</g>
</svg>
