<?xml version="1.0" encoding="utf-8"?>
<!-- Generator: Adobe Illustrator 16.0.3, SVG Export Plug-In . SVG Version: 6.00 Build 0)  -->
<!DOCTYPE svg PUBLIC "-//W3C//DTD SVG 1.1//EN" "http://www.w3.org/Graphics/SVG/1.1/DTD/svg11.dtd">
<svg version="1.1" id="Layer_1" xmlns="http://www.w3.org/2000/svg" xmlns:xlink="http://www.w3.org/1999/xlink" x="0px" y="0px"
	 width="396.729px" height="105.813px" viewBox="0 244.729 396.729 105.813" enable-background="new 0 244.729 396.729 105.813"
	 xml:space="preserve">
<title>verified</title>
<g>
	<g>
		<defs>
			<rect id="SVGID_1_" y="244.729" width="396.729" height="105.813"/>
		</defs>
		<clipPath id="SVGID_2_">
			<use xlink:href="#SVGID_1_"  overflow="visible"/>
		</clipPath>
		<path clip-path="url(#SVGID_2_)" d="M70.27,260.861c-1.254-2.581-3.306-4.672-5.811-6.266c-2.66-1.634-5.736-2.774-9.309-3.41
			c-3.608-0.653-7.748-0.958-12.609-0.997H20.244c-2.316,0.04-4.595,1.834-5.126,4.065l-15.004,65.38
			c-0.532,2.193,0.912,4.063,3.229,4.063h10.673c2.315,0,4.635-1.794,5.128-4.063l3.685-15.888c0.493-2.203,2.771-4.017,5.089-4.017
			h3.078c13.066-0.038,23.169-2.706,30.425-8.063c7.331-5.354,10.9-12.421,10.9-21.155C72.32,266.674,71.713,263.446,70.27,260.861
			L70.27,260.861z M47.252,282.207c-3.229,2.395-7.711,3.572-13.523,3.572h-2.582c-2.317,0-3.76-1.823-3.267-4.063l3.229-13.893
			c0.455-2.213,2.771-4.065,5.088-4.065h3.496c4.101,0,7.217,0.674,9.306,2.081c2.051,1.329,3.076,3.494,3.076,6.342
			C52.114,276.511,50.441,279.853,47.252,282.207L47.252,282.207z M194.059,273.701l-42.542,71.978
			c-1.367,2.241-4.406,4.026-6.686,4.026l-11.09,0.038c-2.28,0-3.04-1.823-1.635-4.064l9.459-16.483c0,0,0.76-0.95,0.076-6.335
			c-1.444-9.723-8.698-51.059-8.698-51.059c-0.532-2.24,0.874-4.103,3.19-4.103h9.571c2.925,0,5.281,1.938,5.812,4.188l4.748,28.679
			l1.785,0.038c1.481-2.671,16.789-28.916,16.789-28.916c1.443-2.203,4.406-4.065,6.723-4.065c0,0,10.257,0.038,12.8,0
			C198.16,267.546,194.059,273.701,194.059,273.701L194.059,273.701z M264.216,261.128c-1.332-2.61-3.307-4.71-5.851-6.342
			c-2.622-1.596-5.698-2.736-9.307-3.38c-3.533-0.648-7.749-0.98-12.573-0.98h-22.334c-2.316,0.03-4.557,1.852-5.09,4.056
			l-15.003,65.407c-0.532,2.213,0.949,4.064,3.228,4.064l10.673-0.038c2.279,0.038,4.636-1.813,5.129-4.026l3.647-15.878
			c0.531-2.192,2.811-4.063,5.127-4.063h3.037c13.068,0,23.211-2.687,30.539-8.015c7.181-5.393,10.827-12.459,10.827-21.194
			C266.228,266.902,265.581,263.673,264.216,261.128L264.216,261.128z M241.197,282.512c-3.229,2.328-7.712,3.496-13.485,3.496
			h-2.66c-2.278,0-3.796-1.861-3.266-4.064l3.229-13.865c0.493-2.202,2.81-4.065,5.127-4.065h3.457c4.102,0,7.178,0.685,9.306,2.053
			c2.053,1.376,3.077,3.533,3.115,6.38C246.021,276.777,244.386,280.119,241.197,282.512L241.197,282.512z M121.775,270.207
			c-4.026-2.28-10.407-3.38-19.069-3.38c-4.328,0-8.62,0.304-12.95,0.997c-3.19,0.484-3.495,0.56-5.472,1.016
			c-4.063,0.874-4.707,4.938-4.707,4.938l-1.293,5.355c-0.723,3.419,1.253,3.304,2.052,2.999c1.784-0.521,2.773-1.063,6.381-1.859
			c3.494-0.798,7.141-1.368,10.026-1.329c4.256,0,7.521,0.417,9.724,1.367c2.128,0.911,3.192,2.516,3.192,4.824l-0.19,1.518
			l-1.518,0.951c-6.079,0.379-10.447,0.95-15.765,1.719c-5.205,0.711-9.762,2.014-13.521,3.713
			c-4.065,1.795-7.104,4.227-9.192,7.254c-2.053,3.087-3.077,6.81-3.077,11.168c0,4.149,1.48,7.521,4.367,10.15
			c2.888,2.574,6.687,3.828,11.244,3.828c2.887,0,5.127-0.229,6.686-0.607l5.203-1.787l4.367-2.431l4.028-2.649l0.036,0.076
			l-0.379,1.7l-0.038,0.076c-0.418,2.09,0.836,3.799,2.848,3.988l0.038,0.076h9.952l0.115-0.076
			c2.127-0.266,4.141-1.975,4.597-3.988l7.785-33.729l0.417-2.736l0.19-2.572C127.891,276.018,125.801,272.485,121.775,270.207
			L121.775,270.207z M104.569,308.114l-1.671,2.212l-4.217,2.156c-1.975,0.798-3.836,1.216-5.584,1.216
			c-2.62,0-4.672-0.38-6.077-1.178l-2.052-3.989c0-2.166,0.493-3.865,1.556-5.203l4.521-3.067c1.938-0.655,4.333-1.216,7.066-1.604
			c2.431-0.304,7.255-0.865,7.9-0.865l0.723,1.281C106.583,299.805,105.215,305.531,104.569,308.114L104.569,308.114z
			 M371.252,246.542h3.57v1.48h-3.57v6.05l0.266,0.824l0.569,0.572l1.064,0.151l0.912-0.114l0.683-0.218h0.076v1.595l-1.063,0.181
			l-1.027,0.076l-2.429-0.875l-0.836-2.735v-5.507h-1.178v-1.48h1.178v-2.963h1.784V246.542z M315.757,270.255
			c-4.062-2.252-10.407-3.392-19.066-3.392c-4.293,0-8.621,0.304-12.914,1.026c-3.23,0.457-3.533,0.57-5.509,0.988
			c-4.063,0.874-4.672,4.938-4.672,4.938l-1.329,5.365c-0.723,3.408,1.215,3.256,2.128,2.991c1.746-0.531,2.733-1.026,6.304-1.861
			c3.458-0.798,7.143-1.367,10.066-1.367c4.216,0,7.481,0.493,9.686,1.415c2.165,0.901,3.229,2.535,3.229,4.814l-0.188,1.52
			l-1.521,0.958c-6.115,0.37-10.521,0.94-15.764,1.7c-5.165,0.722-9.762,1.985-13.561,3.723c-4.063,1.795-7.103,4.226-9.191,7.254
			c-2.051,3.087-3.076,6.81-3.076,11.13c0,4.149,1.481,7.559,4.369,10.188c2.925,2.536,6.684,3.826,11.241,3.826
			c2.889,0,5.129-0.18,6.724-0.597l5.166-1.758l4.406-2.431l3.987-2.688l0.076,0.076l-0.378,1.7l-0.039,0.038l0.039,0.038
			c-0.496,2.088,0.758,3.808,2.848,3.988v0.038h9.913l0.152-0.038c2.088-0.266,4.103-1.977,4.558-4.026l7.787-33.652l0.417-2.774
			l0.229-2.572C321.873,276.056,319.821,272.523,315.757,270.255L315.757,270.255z M298.589,308.151l-1.747,2.242l-4.141,2.165
			c-1.976,0.76-3.874,1.175-5.584,1.175c-2.696,0-4.708-0.378-6.076-1.137l-2.089-3.989c0-2.202,0.531-3.902,1.557-5.232
			c1.025-1.262,2.584-2.318,4.558-3.087c1.898-0.636,4.292-1.178,7.027-1.557c2.432-0.343,7.257-0.875,7.864-0.902l0.758,1.319
			C300.602,299.871,299.234,305.569,298.589,308.151L298.589,308.151z M355.831,255.013l-14.282,64.8l-0.531,0.797
			c-0.837,1.786-2.621,3.268-4.597,3.268h-9.912l-0.192-0.219c-1.899-0.275-3.112-1.796-2.658-3.808l-0.038-0.038l0.418-1.853
			l13.407-60.783l0.455-2.127l0.533-0.834c0.873-1.776,2.66-3.229,4.596-3.229h9.573
			C354.918,250.949,356.286,252.772,355.831,255.013L355.831,255.013z M391.307,247.301l0.799,2.887v6.762h-1.748v-5.925
			l-0.114-1.292l-0.19-0.988l-0.644-0.608l-1.141-0.229l-1.482,0.38l-1.441,0.95v0.494l0.035,0.57v6.647h-1.745v-5.965l-0.076-1.252
			l-0.267-1.026l-0.569-0.57l-1.178-0.229l-1.443,0.342l-1.444,0.922v7.739h-1.745v-10.37h1.745v1.139l1.635-1.063l1.749-0.38
			l1.783,0.457l1.101,1.214l1.938-1.29l1.863-0.38L391.307,247.301z M391.307,247.301"/>
	</g>
</g>
</svg>
